<svg xmlns="http://www.w3.org/2000/svg" width="93.73" height="25" viewBox="0 0 93.73 25"><defs><style>.a{fill:#fff;}</style></defs><path class="a" d="M66.053,36.5a4.967,4.967,0,0,1,2.366-4.168,5.089,5.089,0,0,0-4.008-2.166c-1.686-.177-3.321,1.008-4.18,1.008-.876,0-2.2-.991-3.624-.962a5.336,5.336,0,0,0-4.491,2.738c-1.942,3.361-.494,8.3,1.367,11.018.931,1.331,2.018,2.816,3.442,2.764,1.393-.057,1.913-.887,3.594-.887,1.665,0,2.154.887,3.606.853,1.495-.023,2.436-1.337,3.334-2.679a10.982,10.982,0,0,0,1.525-3.1A4.805,4.805,0,0,1,66.053,36.5ZM63.31,28.378a4.888,4.888,0,0,0,1.119-3.5,4.982,4.982,0,0,0-3.221,1.666,4.652,4.652,0,0,0-1.148,3.374,4.115,4.115,0,0,0,3.25-1.536Z" transform="translate(-51.195 -24.875)"/><path class="a" d="M179.44,83.587h-1.946l-1.066-3.349h-3.706l-1.016,3.349h-1.895l3.672-11.4h2.268Zm-3.334-4.754-.964-2.977q-.153-.456-.575-2.148h-.034q-.17.727-.542,2.148l-.948,2.977Zm12.76.542a4.655,4.655,0,0,1-1.14,3.315,3.342,3.342,0,0,1-2.535,1.083,2.538,2.538,0,0,1-2.348-1.166v4.314h-1.827V78.067q0-1.317-.068-2.7h1.607l.1,1.3h.034a3.251,3.251,0,0,1,5.2-.323A4.546,4.546,0,0,1,188.866,79.375ZM187,79.442a3.389,3.389,0,0,0-.542-1.98,1.872,1.872,0,0,0-1.591-.811,1.9,1.9,0,0,0-1.226.448,2.078,2.078,0,0,0-.719,1.176,2.385,2.385,0,0,0-.085.556V80.2a2.2,2.2,0,0,0,.55,1.515,1.827,1.827,0,0,0,1.43.618,1.873,1.873,0,0,0,1.607-.8A3.5,3.5,0,0,0,187,79.442Zm11.321-.067a4.655,4.655,0,0,1-1.14,3.315,3.344,3.344,0,0,1-2.536,1.083,2.538,2.538,0,0,1-2.348-1.166v4.314h-1.827V78.067q0-1.317-.068-2.7h1.607l.1,1.3h.034a3.252,3.252,0,0,1,5.2-.323A4.55,4.55,0,0,1,198.325,79.375Zm-1.862.067a3.389,3.389,0,0,0-.543-1.98,1.869,1.869,0,0,0-1.589-.811,1.908,1.908,0,0,0-1.228.448,2.077,2.077,0,0,0-.718,1.176,2.439,2.439,0,0,0-.086.556V80.2a2.207,2.207,0,0,0,.549,1.515,1.831,1.831,0,0,0,1.431.618,1.871,1.871,0,0,0,1.607-.8A3.5,3.5,0,0,0,196.463,79.442Zm12.438.947a3.045,3.045,0,0,1-1.014,2.369,4.5,4.5,0,0,1-3.107,1,5.424,5.424,0,0,1-2.953-.71l.423-1.523a5.084,5.084,0,0,0,2.64.711,2.491,2.491,0,0,0,1.607-.465,1.52,1.52,0,0,0,.577-1.242,1.592,1.592,0,0,0-.475-1.168,4.4,4.4,0,0,0-1.574-.879q-3-1.117-3-3.266a2.884,2.884,0,0,1,1.058-2.3,4.183,4.183,0,0,1,2.8-.9,5.536,5.536,0,0,1,2.589.542l-.459,1.489a4.528,4.528,0,0,0-2.191-.524,2.229,2.229,0,0,0-1.512.474,1.356,1.356,0,0,0-.458,1.033,1.4,1.4,0,0,0,.525,1.116,5.919,5.919,0,0,0,1.658.879,5.619,5.619,0,0,1,2.166,1.386,2.889,2.889,0,0,1,.7,1.978Zm6.057-3.653h-2.014v3.992q0,1.523,1.066,1.522a3.21,3.21,0,0,0,.812-.085l.051,1.387a4.141,4.141,0,0,1-1.421.2,2.19,2.19,0,0,1-1.693-.661,3.239,3.239,0,0,1-.609-2.217V76.733h-1.2V75.362h1.2V73.856l1.795-.542v2.047h2.014Zm9.069,2.672a4.51,4.51,0,0,1-1.083,3.113,3.862,3.862,0,0,1-3.012,1.252,3.681,3.681,0,0,1-2.886-1.2,4.373,4.373,0,0,1-1.075-3.028,4.473,4.473,0,0,1,1.108-3.129,3.842,3.842,0,0,1,2.988-1.218,3.759,3.759,0,0,1,2.91,1.2A4.316,4.316,0,0,1,224.027,79.408Zm-1.894.042a3.681,3.681,0,0,0-.489-1.94A1.809,1.809,0,0,0,220,76.531a1.835,1.835,0,0,0-1.676.979,3.742,3.742,0,0,0-.49,1.974,3.67,3.67,0,0,0,.49,1.941,1.874,1.874,0,0,0,3.3-.016A3.7,3.7,0,0,0,222.133,79.45Zm7.836-2.479a3.181,3.181,0,0,0-.576-.051,1.725,1.725,0,0,0-1.49.728,2.742,2.742,0,0,0-.456,1.624v4.314H225.62V77.954q0-1.295-.053-2.588h1.592l.067,1.573h.051a2.82,2.82,0,0,1,.914-1.3,2.21,2.21,0,0,1,1.321-.44,2.935,2.935,0,0,1,.457.033l0,1.743Zm8.172,2.115a4.284,4.284,0,0,1-.067.829h-5.482a2.384,2.384,0,0,0,.8,1.863,2.72,2.72,0,0,0,1.793.574,6.064,6.064,0,0,0,2.218-.388l.286,1.267a6.859,6.859,0,0,1-2.757.508,4,4,0,0,1-3-1.124,4.156,4.156,0,0,1-1.091-3.019,4.709,4.709,0,0,1,1.016-3.095,3.5,3.5,0,0,1,2.875-1.319,3.065,3.065,0,0,1,2.692,1.319A4.437,4.437,0,0,1,238.141,79.087Zm-1.742-.474a2.472,2.472,0,0,0-.355-1.4,1.6,1.6,0,0,0-1.455-.763,1.732,1.732,0,0,0-1.454.745,2.728,2.728,0,0,0-.541,1.421Z" transform="translate(-144.411 -61.921)"/><path class="a" d="M176.12,32.164a11.67,11.67,0,0,1-1.314-.067V26.584a9.949,9.949,0,0,1,1.547-.117c2.1,0,3.06,1.031,3.06,2.711C179.414,31.117,178.274,32.164,176.12,32.164Zm.307-4.989a3.666,3.666,0,0,0-.723.058v4.191a4.743,4.743,0,0,0,.607.025,1.986,1.986,0,0,0,2.155-2.245A1.829,1.829,0,0,0,176.427,27.175Zm5.994,5.031a1.923,1.923,0,0,1-1.946-2.079,1.968,1.968,0,0,1,2.013-2.137,1.908,1.908,0,0,1,1.946,2.071A1.98,1.98,0,0,1,182.421,32.206Zm.034-3.559c-.649,0-1.064.607-1.064,1.455,0,.832.424,1.439,1.056,1.439s1.056-.649,1.056-1.456C183.5,29.262,183.087,28.647,182.455,28.647Zm8.714-.573L189.9,32.114h-.824l-.524-1.755a13.3,13.3,0,0,1-.325-1.3h-.017a8.741,8.741,0,0,1-.324,1.3l-.557,1.755H186.5l-1.19-4.041h.923l.458,1.921q.162.686.274,1.3h.017A13.308,13.308,0,0,1,187.317,30l.574-1.929h.732l.549,1.888c.133.458.241.907.325,1.331h.024a11.625,11.625,0,0,1,.274-1.331l.491-1.888h.882Zm4.654,4.041h-.9v-2.32c0-.715-.274-1.073-.815-1.073a.933.933,0,0,0-.9.99v2.4h-.9V29.228c0-.357-.009-.74-.033-1.156h.79l.042.624h.025a1.452,1.452,0,0,1,1.281-.706c.848,0,1.406.649,1.406,1.7v2.42Zm2.477,0h-.9V26.219h.9Zm3.275.092a1.924,1.924,0,0,1-1.946-2.079,1.968,1.968,0,0,1,2.012-2.137,1.908,1.908,0,0,1,1.946,2.071A1.979,1.979,0,0,1,201.574,32.206Zm.033-3.559c-.649,0-1.064.607-1.064,1.455,0,.832.425,1.439,1.055,1.439s1.056-.649,1.056-1.456c0-.823-.414-1.438-1.046-1.438Zm5.52,3.468-.065-.465h-.024a1.38,1.38,0,0,1-1.182.557,1.175,1.175,0,0,1-1.238-1.189c0-1,.865-1.513,2.362-1.513v-.075c0-.532-.282-.8-.839-.8a1.892,1.892,0,0,0-1.056.3l-.183-.59a2.584,2.584,0,0,1,1.388-.35c1.056,0,1.589.557,1.589,1.672V31.15a6.1,6.1,0,0,0,.058.965ZM207,30.1c-1,0-1.5.242-1.5.815a.573.573,0,0,0,.616.631.86.86,0,0,0,.882-.823Zm5.236,2.013-.042-.649h-.025a1.355,1.355,0,0,1-1.3.74,1.842,1.842,0,0,1-1.7-2.062,1.917,1.917,0,0,1,1.77-2.154,1.214,1.214,0,0,1,1.14.549h.018V26.219h.9v4.806c0,.391.009.757.033,1.089h-.8Zm-.133-2.378a.978.978,0,0,0-.946-1.048c-.666,0-1.073.59-1.073,1.421,0,.815.423,1.373,1.055,1.373a1.008,1.008,0,0,0,.964-1.073Zm6.6,2.469a1.923,1.923,0,0,1-1.945-2.079,1.968,1.968,0,0,1,2.012-2.137,1.908,1.908,0,0,1,1.946,2.071A1.979,1.979,0,0,1,218.707,32.206Zm.033-3.559c-.648,0-1.064.607-1.064,1.455,0,.832.424,1.439,1.055,1.439s1.056-.649,1.056-1.456C219.79,29.262,219.374,28.647,218.741,28.647Zm6.81,3.468h-.9v-2.32c0-.715-.274-1.073-.815-1.073a.932.932,0,0,0-.9.99v2.4h-.9V29.228c0-.357-.009-.74-.033-1.156h.79l.042.624h.025a1.451,1.451,0,0,1,1.28-.707c.848,0,1.406.649,1.406,1.7Zm6.043-3.367h-.988v1.962c0,.5.173.749.523.749a1.769,1.769,0,0,0,.4-.042l.025.682a1.99,1.99,0,0,1-.7.1c-.708,0-1.131-.391-1.131-1.414V28.747h-.59v-.673h.59v-.74l.882-.266v1.006h.988Zm4.755,3.367h-.9v-2.3c0-.723-.273-1.089-.815-1.089a.881.881,0,0,0-.9.956v2.436h-.9V26.219h.9v2.427h.018a1.363,1.363,0,0,1,1.215-.657c.855,0,1.378.665,1.378,1.721Zm4.871-1.8h-2.7a1.16,1.16,0,0,0,1.274,1.2,3.036,3.036,0,0,0,1.089-.191l.14.624a3.375,3.375,0,0,1-1.356.249,1.876,1.876,0,0,1-2.012-2.037,1.974,1.974,0,0,1,1.911-2.17,1.7,1.7,0,0,1,1.681,1.921A1.731,1.731,0,0,1,241.22,30.31Zm-.824-.64c0-.624-.315-1.064-.889-1.064a1.065,1.065,0,0,0-.982,1.064Z" transform="translate(-148.336 -25.931)"/></svg>