<svg xmlns="http://www.w3.org/2000/svg" xmlns:xlink="http://www.w3.org/1999/xlink" width="352.833" height="619.269" viewBox="0 0 352.833 619.269"><defs><style>.a{fill:#fff;}.b{fill:#afaeae;}.c{fill:#f5f5f5;}.d{fill:#f9f9f9;}.e{fill:#cdcecd;}.f{fill:#ededed;}.g{fill:#202121;}.h{fill:#e8e8e8;}.i{fill:#e2e1e1;}.j{fill:#959595;}.k{fill:url(#c);}.l{fill:url(#d);}.m{fill:url(#e);}.n{fill:#bbb;}.o{fill:#39b8ff;}.p{fill:url(#f);}.q{fill:url(#h);}.r{fill:url(#i);}.s{fill:#1aff1a;}.t{opacity:0.2;}.u{filter:url(#a);}</style><filter id="a" x="112.515" y="415.771" width="131.275" height="203.498" filterUnits="userSpaceOnUse"><feOffset dx="2" dy="3" input="SourceAlpha"/><feGaussianBlur stdDeviation="5" result="b"/><feFlood flood-opacity="0.161"/><feComposite operator="in" in2="b"/><feComposite in="SourceGraphic"/></filter><linearGradient id="c" y1="0.5" x2="1" y2="0.5" gradientUnits="objectBoundingBox"><stop offset="0" stop-color="#fff"/><stop offset="1" stop-color="#fff"/></linearGradient><linearGradient id="d" x1="0.5" y1="0.854" x2="0.5" y2="-0.049" xlink:href="#c"/><linearGradient id="e" x1="0.498" y1="1.364" x2="0.501" y2="0.125" gradientUnits="objectBoundingBox"><stop offset="0" stop-color="#cdcecd"/><stop offset="1" stop-color="#fff"/></linearGradient><linearGradient id="f" x1="0" y1="0.5" x2="1" y2="0.5" xlink:href="#c"/><linearGradient id="h" x1="0.498" y1="1.359" x2="0.501" y2="0.12" xlink:href="#e"/><linearGradient id="i" x1="0" y1="0.5" x2="1" y2="0.5" xlink:href="#c"/></defs><g transform="translate(-527 -3740.91)"><g transform="translate(652.514 4168.681)"><g class="u" transform="matrix(1, 0, 0, 1, -125.51, -427.77)"><path class="a" d="M14.728-20H86.547A14.728,14.728,0,0,1,101.275-5.272V138.77A14.728,14.728,0,0,1,86.547,153.5H14.728A14.728,14.728,0,0,1,0,138.77V-5.272A14.728,14.728,0,0,1,14.728-20Z" transform="translate(125.51 447.77)"/></g><g transform="translate(28.386 131.162)"><path class="b" d="M134.92,468.361a1.355,1.355,0,0,1-.444.938,1.511,1.511,0,0,1-1.029.336,1.464,1.464,0,0,1-.79-.212,1.394,1.394,0,0,1-.527-.6,2.185,2.185,0,0,1-.193-.911v-.351a2.2,2.2,0,0,1,.188-.936,1.422,1.422,0,0,1,.54-.624,1.506,1.506,0,0,1,.814-.219,1.452,1.452,0,0,1,1,.337,1.4,1.4,0,0,1,.441.953h-.65a.926.926,0,0,0-.236-.584.779.779,0,0,0-.556-.179.762.762,0,0,0-.654.311,1.552,1.552,0,0,0-.233.912v.333a1.646,1.646,0,0,0,.218.929.723.723,0,0,0,.638.32.842.842,0,0,0,.578-.173.9.9,0,0,0,.245-.575Z" transform="translate(-131.936 -465.622)"/><path class="b" d="M143.551,471.4a.982.982,0,0,1-.072-.261,1.055,1.055,0,0,1-1.418.073.768.768,0,0,1-.266-.593.793.793,0,0,1,.331-.685,1.607,1.607,0,0,1,.948-.238h.384v-.183a.488.488,0,0,0-.121-.347.481.481,0,0,0-.369-.13.551.551,0,0,0-.351.107.332.332,0,0,0-.137.272h-.627a.7.7,0,0,1,.152-.429,1.015,1.015,0,0,1,.414-.313,1.454,1.454,0,0,1,.584-.113,1.172,1.172,0,0,1,.782.246.879.879,0,0,1,.3.693v1.258a1.422,1.422,0,0,0,.106.6v.044Zm-.688-.451a.712.712,0,0,0,.349-.09.606.606,0,0,0,.246-.242v-.526h-.338a.928.928,0,0,0-.524.121.393.393,0,0,0-.175.343.366.366,0,0,0,.12.287A.465.465,0,0,0,142.863,470.952Z" transform="translate(-138.378 -467.441)"/><path class="b" d="M152.738,470.036a1.661,1.661,0,0,1-.294,1.033,1.022,1.022,0,0,1-1.524.084v1.323h-.627v-3.863h.577l.026.284a.92.92,0,0,1,.75-.335.952.952,0,0,1,.8.38,1.706,1.706,0,0,1,.29,1.056Zm-.624-.054a1.165,1.165,0,0,0-.166-.663.541.541,0,0,0-.476-.245.577.577,0,0,0-.552.317v1.238a.582.582,0,0,0,.557.325.541.541,0,0,0,.468-.241A1.282,1.282,0,0,0,152.114,469.982Z" transform="translate(-143.931 -467.441)"/><path class="b" d="M160.376,471.4a.956.956,0,0,1-.072-.261,1.055,1.055,0,0,1-1.419.073.768.768,0,0,1-.265-.593.792.792,0,0,1,.331-.685,1.605,1.605,0,0,1,.948-.238h.384v-.183a.488.488,0,0,0-.121-.347.481.481,0,0,0-.369-.13.551.551,0,0,0-.351.107.331.331,0,0,0-.137.272h-.627a.7.7,0,0,1,.152-.429,1.015,1.015,0,0,1,.414-.313,1.454,1.454,0,0,1,.584-.113,1.172,1.172,0,0,1,.782.246.879.879,0,0,1,.3.693v1.258a1.427,1.427,0,0,0,.106.6v.044Zm-.689-.451a.712.712,0,0,0,.349-.09.606.606,0,0,0,.246-.242v-.526h-.338a.926.926,0,0,0-.523.121.392.392,0,0,0-.175.343.366.366,0,0,0,.12.287A.465.465,0,0,0,159.687,470.952Z" transform="translate(-149.372 -467.441)"/><path class="b" d="M168.046,470.954a.566.566,0,0,0,.39-.137.466.466,0,0,0,.165-.338h.591a.92.92,0,0,1-.163.486,1.061,1.061,0,0,1-.412.357,1.229,1.229,0,0,1-.562.131,1.189,1.189,0,0,1-.928-.379,1.5,1.5,0,0,1-.343-1.047v-.065a1.478,1.478,0,0,1,.34-1.02,1.179,1.179,0,0,1,.928-.383,1.147,1.147,0,0,1,.811.29,1.04,1.04,0,0,1,.329.762H168.6a.575.575,0,0,0-.164-.395.527.527,0,0,0-.391-.155.552.552,0,0,0-.469.22,1.126,1.126,0,0,0-.168.67v.1a1.143,1.143,0,0,0,.164.677A.55.55,0,0,0,168.046,470.954Z" transform="translate(-154.705 -467.441)"/><path class="b" d="M175.1,465.986a.331.331,0,0,1,.091-.24.345.345,0,0,1,.262-.1.35.35,0,0,1,.263.1.329.329,0,0,1,.093.24.323.323,0,0,1-.093.236.355.355,0,0,1-.263.094.349.349,0,0,1-.262-.094A.324.324,0,0,1,175.1,465.986Zm.665,3.515h-.627v-2.79h.627Z" transform="translate(-160.141 -465.54)"/><path class="b" d="M179.208,466.753v.678h.493v.464h-.493v1.558a.343.343,0,0,0,.063.231.292.292,0,0,0,.226.071.974.974,0,0,0,.219-.026v.484a1.528,1.528,0,0,1-.412.059q-.722,0-.722-.8V467.9h-.459v-.464h.459v-.678Z" transform="translate(-162.115 -466.26)"/><path class="b" d="M184.486,470.6l.567-1.893h.668l-1.109,3.213a.9.9,0,0,1-.866.7,1.116,1.116,0,0,1-.3-.047v-.487l.119.007a.61.61,0,0,0,.357-.086.57.57,0,0,0,.19-.29l.09-.24-.98-2.775h.675Z" transform="translate(-165.446 -467.539)"/><path class="b" d="M191.88,468.538a.359.359,0,0,1,.271.1.346.346,0,0,1,.1.249.333.333,0,0,1-.1.244.423.423,0,0,1-.537,0,.327.327,0,0,1-.1-.245.344.344,0,0,1,.1-.249A.354.354,0,0,1,191.88,468.538Zm0,2.189a.357.357,0,0,1,.271.1.344.344,0,0,1,.1.248.332.332,0,0,1-.1.244.422.422,0,0,1-.537,0,.326.326,0,0,1-.1-.245.343.343,0,0,1,.1-.248A.352.352,0,0,1,191.88,470.727Z" transform="translate(-170.867 -467.426)"/><path class="b" d="M195.665,467.82l.2-1.893h2.017v.541h-1.5l-.1.9a1.159,1.159,0,0,1,.588-.15,1.047,1.047,0,0,1,.834.343,1.36,1.36,0,0,1,.3.923,1.251,1.251,0,0,1-.33.911,1.2,1.2,0,0,1-.905.339,1.262,1.262,0,0,1-.855-.292,1.059,1.059,0,0,1-.367-.773h.606a.663.663,0,0,0,.2.419.6.6,0,0,0,.418.146.538.538,0,0,0,.45-.206.89.89,0,0,0,.161-.562.786.786,0,0,0-.178-.543.622.622,0,0,0-.49-.2.683.683,0,0,0-.547.222Z" transform="translate(-173.502 -465.72)"/><path class="b" d="M206.49,468a2.051,2.051,0,0,1-.3,1.221,1.071,1.071,0,0,1-.922.411,1.085,1.085,0,0,1-.917-.4,1.962,1.962,0,0,1-.316-1.188v-.65a2.017,2.017,0,0,1,.3-1.215,1.262,1.262,0,0,1,1.844-.011,1.957,1.957,0,0,1,.311,1.181Zm-.627-.7a1.594,1.594,0,0,0-.144-.775.552.552,0,0,0-.911-.013,1.47,1.47,0,0,0-.152.729v.851a1.633,1.633,0,0,0,.147.784.494.494,0,0,0,.462.258.485.485,0,0,0,.446-.239,1.527,1.527,0,0,0,.152-.747Z" transform="translate(-179.045 -465.622)"/><path class="b" d="M215.151,468a2.051,2.051,0,0,1-.3,1.221,1.071,1.071,0,0,1-.922.411,1.086,1.086,0,0,1-.917-.4,1.961,1.961,0,0,1-.316-1.188v-.65a2.017,2.017,0,0,1,.3-1.215,1.262,1.262,0,0,1,1.844-.011,1.957,1.957,0,0,1,.311,1.181Zm-.627-.7a1.593,1.593,0,0,0-.144-.775.552.552,0,0,0-.911-.013,1.47,1.47,0,0,0-.152.729v.851a1.633,1.633,0,0,0,.147.784.494.494,0,0,0,.462.258.485.485,0,0,0,.446-.239,1.534,1.534,0,0,0,.152-.747Z" transform="translate(-184.704 -465.622)"/><path class="b" d="M223.813,468a2.048,2.048,0,0,1-.3,1.221,1.07,1.07,0,0,1-.922.411,1.085,1.085,0,0,1-.917-.4,1.962,1.962,0,0,1-.316-1.188v-.65a2.017,2.017,0,0,1,.3-1.215,1.263,1.263,0,0,1,1.844-.011,1.954,1.954,0,0,1,.311,1.181Zm-.627-.7a1.594,1.594,0,0,0-.144-.775.552.552,0,0,0-.91-.013,1.47,1.47,0,0,0-.152.729v.851a1.629,1.629,0,0,0,.147.784.494.494,0,0,0,.462.258.485.485,0,0,0,.446-.239,1.528,1.528,0,0,0,.152-.747Z" transform="translate(-190.364 -465.622)"/><path class="b" d="M230.748,468.613l.018.292a1,1,0,0,1,.8-.343.771.771,0,0,1,.766.428.99.99,0,0,1,.856-.428.872.872,0,0,1,.687.255,1.125,1.125,0,0,1,.231.753V471.4h-.627v-1.816a.557.557,0,0,0-.116-.39.509.509,0,0,0-.384-.124.521.521,0,0,0-.349.115.6.6,0,0,0-.19.3l0,1.914h-.627v-1.836a.447.447,0,0,0-.5-.493.552.552,0,0,0-.534.307V471.4h-.627v-2.79Z" transform="translate(-196.116 -467.441)"/><path class="b" d="M245.066,468.807h-1.455l-.3.874h-.678l1.419-3.755h.585l1.421,3.755h-.681Zm-1.272-.526h1.088l-.544-1.558Z" transform="translate(-204.265 -465.72)"/><path class="b" d="M254.165,466.806a.98.98,0,0,1,.776-.356q.893,0,.905,1.019v1.823h-.627v-1.8a.55.55,0,0,0-.125-.408.51.51,0,0,0-.367-.12.6.6,0,0,0-.562.336v1.994h-.627v-3.961h.627Z" transform="translate(-211.393 -465.331)"/><path class="b" d="M133.04,491.017h-.65v-3.755h.65Z" transform="translate(-132.233 -479.661)"/><path class="b" d="M136.969,489.948l.018.322a1,1,0,0,1,.812-.374q.872,0,.887,1v1.844h-.627V490.93a.573.573,0,0,0-.115-.393.481.481,0,0,0-.375-.128.6.6,0,0,0-.565.343v1.986h-.627v-2.79Z" transform="translate(-134.839 -481.382)"/><path class="b" d="M147.321,491.371a1.662,1.662,0,0,1-.294,1.033,1.022,1.022,0,0,1-1.524.084v1.323h-.627v-3.863h.577l.026.283a.92.92,0,0,1,.75-.335.952.952,0,0,1,.8.38,1.705,1.705,0,0,1,.29,1.056Zm-.624-.054a1.165,1.165,0,0,0-.166-.663.541.541,0,0,0-.476-.245.577.577,0,0,0-.552.317v1.238a.582.582,0,0,0,.557.325.54.54,0,0,0,.468-.241A1.28,1.28,0,0,0,146.7,491.317Z" transform="translate(-140.391 -481.382)"/><path class="b" d="M155.123,492.562a.972.972,0,0,1-.784.325.867.867,0,0,1-.687-.265,1.131,1.131,0,0,1-.234-.769v-1.808h.627v1.8q0,.532.441.531a.619.619,0,0,0,.616-.328v-2h.627v2.79h-.591Z" transform="translate(-145.973 -481.48)"/><path class="b" d="M162.146,488.088v.678h.493v.464h-.493v1.558a.341.341,0,0,0,.063.231.292.292,0,0,0,.226.071.978.978,0,0,0,.219-.026v.485a1.53,1.53,0,0,1-.413.059q-.722,0-.722-.8V489.23h-.459v-.464h.459v-.678Z" transform="translate(-150.966 -480.201)"/><path class="b" d="M167.4,489.873a.358.358,0,0,1,.271.1.345.345,0,0,1,.1.249.333.333,0,0,1-.1.244.423.423,0,0,1-.536,0,.327.327,0,0,1-.1-.245.344.344,0,0,1,.1-.249A.354.354,0,0,1,167.4,489.873Zm0,2.189a.357.357,0,0,1,.271.1.344.344,0,0,1,.1.248.332.332,0,0,1-.1.244.422.422,0,0,1-.536,0,.326.326,0,0,1-.1-.245.343.343,0,0,1,.1-.248A.353.353,0,0,1,167.4,492.062Z" transform="translate(-154.87 -481.367)"/><path class="b" d="M171.184,489.155l.2-1.893H173.4v.541h-1.5l-.1.9a1.159,1.159,0,0,1,.588-.15,1.047,1.047,0,0,1,.834.343,1.359,1.359,0,0,1,.3.923,1.251,1.251,0,0,1-.33.912,1.205,1.205,0,0,1-.905.339,1.263,1.263,0,0,1-.855-.293,1.059,1.059,0,0,1-.367-.773h.606a.662.662,0,0,0,.2.419.6.6,0,0,0,.418.146.538.538,0,0,0,.45-.206.89.89,0,0,0,.162-.562.786.786,0,0,0-.178-.543.622.622,0,0,0-.49-.2.683.683,0,0,0-.547.222Z" transform="translate(-157.506 -479.661)"/><path class="b" d="M180.561,490.2l.954-2.937h.717l-1.351,3.755h-.632l-1.346-3.755h.715Z" transform="translate(-162.625 -479.661)"/><path class="b" d="M189.136,491.339h-.493l1.478-4.077h.493Z" transform="translate(-168.99 -479.661)"/><path class="b" d="M197.856,490.919h-2.525v-.43l1.251-1.365a3.1,3.1,0,0,0,.385-.5.817.817,0,0,0,.115-.406.616.616,0,0,0-.151-.433.523.523,0,0,0-.406-.165.6.6,0,0,0-.472.186.73.73,0,0,0-.168.508h-.627a1.229,1.229,0,0,1,.156-.618,1.074,1.074,0,0,1,.446-.427,1.417,1.417,0,0,1,.669-.153,1.272,1.272,0,0,1,.863.275.955.955,0,0,1,.316.76,1.289,1.289,0,0,1-.159.589,3.354,3.354,0,0,1-.52.7l-.918.983h1.743Z" transform="translate(-173.312 -479.563)"/><path class="b" d="M205.889,490.142h-1.454l-.3.874h-.678l1.418-3.755h.585l1.421,3.755H206.2Zm-1.271-.526h1.088l-.544-1.558Z" transform="translate(-178.666 -479.661)"/><path class="b" d="M135.051,510.474a2.306,2.306,0,0,1-.191.969,1.442,1.442,0,0,1-.546.639,1.6,1.6,0,0,1-1.63,0,1.462,1.462,0,0,1-.552-.636,2.225,2.225,0,0,1-.2-.952v-.211a2.282,2.282,0,0,1,.195-.97,1.461,1.461,0,0,1,.549-.643,1.493,1.493,0,0,1,.813-.224,1.509,1.509,0,0,1,.814.221,1.444,1.444,0,0,1,.548.634,2.281,2.281,0,0,1,.2.963Zm-.652-.2a1.641,1.641,0,0,0-.236-.956.833.833,0,0,0-1.331,0,1.609,1.609,0,0,0-.244.937v.217a1.629,1.629,0,0,0,.241.957.777.777,0,0,0,.669.338.768.768,0,0,0,.667-.33,1.666,1.666,0,0,0,.233-.965Z" transform="translate(-131.936 -493.504)"/><path class="b" d="M144.288,513.9a.972.972,0,0,1-.784.325.866.866,0,0,1-.687-.266,1.129,1.129,0,0,1-.234-.768V511.38h.627v1.8q0,.532.441.531a.62.62,0,0,0,.616-.327v-2h.627v2.79H144.3Z" transform="translate(-138.893 -495.42)"/><path class="b" d="M151.312,509.423v.678h.493v.464h-.493v1.558a.342.342,0,0,0,.063.231.292.292,0,0,0,.226.071.982.982,0,0,0,.219-.026v.485a1.549,1.549,0,0,1-.413.059q-.722,0-.722-.8v-1.581h-.459V510.1h.459v-.678Z" transform="translate(-143.887 -494.141)"/><path class="b" d="M158.6,512.705a1.659,1.659,0,0,1-.294,1.033,1.021,1.021,0,0,1-1.524.084v1.323h-.627v-3.863h.577l.026.283a.92.92,0,0,1,.75-.336.953.953,0,0,1,.8.381,1.706,1.706,0,0,1,.29,1.056Zm-.624-.054a1.165,1.165,0,0,0-.166-.663.541.541,0,0,0-.476-.245.577.577,0,0,0-.552.317V513.3a.582.582,0,0,0,.557.325.54.54,0,0,0,.468-.241A1.277,1.277,0,0,0,157.978,512.651Z" transform="translate(-147.762 -495.322)"/><path class="b" d="M166.4,513.9a.972.972,0,0,1-.784.325.866.866,0,0,1-.687-.266,1.129,1.129,0,0,1-.234-.768V511.38h.627v1.8q0,.532.441.531a.62.62,0,0,0,.617-.327v-2h.627v2.79h-.591Z" transform="translate(-153.343 -495.42)"/><path class="b" d="M173.427,509.423v.678h.492v.464h-.492v1.558a.342.342,0,0,0,.063.231.291.291,0,0,0,.226.071.976.976,0,0,0,.219-.026v.485a1.547,1.547,0,0,1-.412.059q-.722,0-.722-.8v-1.581h-.459V510.1h.459v-.678Z" transform="translate(-158.337 -494.141)"/><path class="b" d="M178.68,511.208a.357.357,0,0,1,.271.1.344.344,0,0,1,.1.249.333.333,0,0,1-.1.244.422.422,0,0,1-.536,0,.327.327,0,0,1-.1-.245.346.346,0,0,1,.1-.249A.355.355,0,0,1,178.68,511.208Zm0,2.189a.356.356,0,0,1,.271.1.343.343,0,0,1,.1.248.332.332,0,0,1-.1.244.421.421,0,0,1-.536,0,.327.327,0,0,1-.1-.245.344.344,0,0,1,.1-.248A.354.354,0,0,1,178.68,513.4Z" transform="translate(-162.242 -495.308)"/><path class="b" d="M182.465,510.49l.2-1.893h2.017v.541h-1.5l-.1.9a1.159,1.159,0,0,1,.588-.15,1.045,1.045,0,0,1,.834.343,1.359,1.359,0,0,1,.3.923,1.251,1.251,0,0,1-.33.911,1.205,1.205,0,0,1-.905.339,1.263,1.263,0,0,1-.855-.293,1.059,1.059,0,0,1-.367-.772h.606a.66.66,0,0,0,.2.419.6.6,0,0,0,.418.146.538.538,0,0,0,.45-.206.891.891,0,0,0,.161-.562.786.786,0,0,0-.178-.543.623.623,0,0,0-.49-.2.684.684,0,0,0-.547.222Z" transform="translate(-164.877 -493.602)"/><path class="b" d="M191.842,511.534l.954-2.937h.717l-1.351,3.755h-.632l-1.346-3.755h.715Z" transform="translate(-169.996 -493.602)"/><path class="b" d="M200.417,512.674h-.493L201.4,508.6h.493Z" transform="translate(-176.361 -493.602)"/><path class="b" d="M209.137,512.254h-2.525v-.431l1.251-1.364a3.1,3.1,0,0,0,.385-.5.817.817,0,0,0,.115-.406.617.617,0,0,0-.151-.433.524.524,0,0,0-.406-.165.6.6,0,0,0-.472.186.729.729,0,0,0-.168.508h-.627a1.228,1.228,0,0,1,.156-.618,1.075,1.075,0,0,1,.446-.427,1.419,1.419,0,0,1,.669-.153,1.271,1.271,0,0,1,.863.275.954.954,0,0,1,.316.76,1.289,1.289,0,0,1-.159.589,3.355,3.355,0,0,1-.52.7l-.918.982h1.743Z" transform="translate(-180.684 -493.504)"/><path class="b" d="M217.169,511.477h-1.455l-.3.874h-.678l1.419-3.755h.585l1.421,3.755h-.681Zm-1.272-.526h1.088l-.544-1.558Z" transform="translate(-186.036 -493.602)"/></g><path class="c" d="M81.422,170.611l-.675-.667.154.152,1.518-1.536-1.536-1.517,4.645-4.7a6,6,0,1,0-8.539-8.437l-.015-.015-4.645,4.7-1.521-1.5-1.517,1.536-.536-.53L63.7,153.1a.588.588,0,0,0-.831,0l-7.625,7.718a.588.588,0,0,0,.005.831l5.766,5.7a3.686,3.686,0,0,1,.032,5.212l-.7.71-.036-.036-5.035,5.1,1.466,1.448-6.7,6.786v6.078l9.743-9.862,1.573,1.554,5.035-5.1-.036-.036.7-.71a3.686,3.686,0,0,1,5.212-.032l5.766,5.7a.588.588,0,0,0,.831,0l7.625-7.718a.588.588,0,0,0,0-.832Z" transform="translate(-50.032 -144.239)"/></g><g transform="translate(527 3740.91)"><g transform="translate(0 0)"><rect class="d" width="346.19" height="280.15" rx="20" transform="translate(6.643)"/><rect class="e" width="346.19" height="280.15" rx="20" transform="translate(0 7.799)"/><rect class="f" width="346.19" height="280.15" rx="20" transform="translate(3.492 4.307)"/><rect class="c" width="305.505" height="247.221" rx="33.34" transform="translate(23.841 20.768)"/><rect class="g" width="271.505" height="57.025" rx="10.36" transform="translate(40.837 36.743)"/><rect class="h" width="128.164" height="41.792" rx="10.36" transform="translate(40.837 102.589)"/><path class="a" d="M188.061,215.505a5.852,5.852,0,0,1,5.84,5.846v27.308a5.852,5.852,0,0,1-5.84,5.846V255.9a7.239,7.239,0,0,0,7.239-7.239v-27.32a7.239,7.239,0,0,0-7.239-7.239H74.351a7.239,7.239,0,0,0-7.221,7.239h1.4a5.852,5.852,0,0,1,5.84-5.846H188.061" transform="translate(-26.293 -111.517)"/><path class="e" d="M188.061,216.41,67.13,222.244v27.308a7.239,7.239,0,0,0,7.221,7.251h113.71V255.41H74.351a5.852,5.852,0,0,1-5.84-5.846v-27.32Z" transform="translate(-26.293 -112.422)"/><path class="e" d="M191.566,247.049V233.058c0-3.857-5.919-6.978-9.77-6.978H94.2c-3.851,0-9.776,3.121-9.776,6.978l3.905.152c0-1.965,5.676-3.559,7.5-3.559h84.339c1.825,0,7.5,1.594,7.5,3.559V246.9Z" transform="translate(-33.065 -116.209)"/><path class="c" d="M84.39,237.59v13.992c0,3.851,5.925,6.978,9.776,6.978h87.6c3.851,0,9.77-3.127,9.77-6.978l-3.9-.152c0,1.965-5.676,3.559-7.5,3.559H95.8c-1.825,0-7.5-1.594-7.5-3.559V237.742Z" transform="translate(-33.053 -120.717)"/><path class="i" d="M182.668,252.771H98.311c-1.825,0-7.5-1.594-7.5-3.559V235.549c0-1.965,5.676-3.559,7.5-3.559h84.358c1.825,0,7.5,1.594,7.5,3.559v13.663C190.169,251.177,184.493,252.771,182.668,252.771Z" transform="translate(-35.567 -118.524)"/><path class="j" d="M174.623,208.639H162.56V200.7h4.295v1.059h-3.23v5.816h9.934v-5.816h-3.23V200.7h4.295Z" transform="translate(-63.669 -78.608)"/><path class="j" d="M171.033,191.99l-2.233,2.956h1.7v6.308h1.065v-6.308h1.7Z" transform="translate(-66.113 -75.196)"/><rect class="h" width="128.164" height="41.792" rx="10.36" transform="translate(184.179 210.982)"/><path class="a" d="M423.684,393.693a5.846,5.846,0,0,1,5.84,5.846v27.308a5.846,5.846,0,0,1-5.84,5.846v1.4a7.239,7.239,0,0,0,7.239-7.239V399.539a7.239,7.239,0,0,0-7.239-7.239H310a7.239,7.239,0,0,0-7.239,7.239h1.4a5.846,5.846,0,0,1,5.84-5.846H423.684" transform="translate(-118.581 -181.312)"/><path class="e" d="M423.684,394.59,302.76,400.436v27.308A7.239,7.239,0,0,0,310,434.983H423.684V433.59H310a5.846,5.846,0,0,1-5.84-5.846V400.436Z" transform="translate(-118.581 -182.209)"/><path class="e" d="M427.192,425.229V411.238c0-3.857-5.919-6.978-9.776-6.978h-87.6c-3.857,0-9.776,3.121-9.776,6.978l3.905.152c0-1.965,5.67-3.559,7.5-3.559h84.339c1.825,0,7.5,1.594,7.5,3.559v13.663Z" transform="translate(-125.349 -185.996)"/><path class="c" d="M320,415.77v13.992c0,3.851,5.919,6.978,9.776,6.978h87.6c3.857,0,9.776-3.127,9.776-6.978l-3.906-.152c0,1.965-5.67,3.559-7.5,3.559H331.418c-1.825,0-7.5-1.594-7.5-3.559v-13.7Z" transform="translate(-125.333 -190.504)"/><path class="i" d="M418.292,430.943H333.941c-1.825,0-7.5-1.594-7.5-3.559V413.709c0-1.965,5.67-3.559,7.5-3.559h84.352c1.825,0,7.5,1.594,7.5,3.559v13.663C425.793,429.349,420.123,430.943,418.292,430.943Z" transform="translate(-127.856 -188.303)"/><path class="j" d="M410.247,386.819H398.19V378.88h4.295v1.065h-3.236v5.81h9.94v-5.81h-3.23V378.88h4.289Z" transform="translate(-155.958 -148.395)"/><path class="j" d="M406.659,370.17l-2.239,2.963h1.709v6.3h1.058v-6.3H408.9Z" transform="translate(-158.398 -144.983)"/><rect class="h" width="128.164" height="41.792" rx="10.36" transform="translate(184.179 156.786)"/><path class="a" d="M423.684,304.6a5.846,5.846,0,0,1,5.84,5.846v27.308a5.846,5.846,0,0,1-5.84,5.846V345a7.239,7.239,0,0,0,7.239-7.239V310.449a7.239,7.239,0,0,0-7.239-7.239H310a7.239,7.239,0,0,0-7.239,7.239h1.4A5.846,5.846,0,0,1,310,304.6H423.684" transform="translate(-118.581 -146.418)"/><path class="e" d="M423.684,305.5,302.76,311.346v27.308A7.239,7.239,0,0,0,310,345.893H423.684V344.5H310a5.846,5.846,0,0,1-5.84-5.846V311.346Z" transform="translate(-118.581 -147.315)"/><path class="e" d="M427.192,336.139V322.148c0-3.857-5.919-6.978-9.776-6.978h-87.6c-3.857,0-9.776,3.121-9.776,6.978l3.905.152c0-1.965,5.67-3.559,7.5-3.559h84.339c1.825,0,7.5,1.594,7.5,3.559v13.663Z" transform="translate(-125.349 -151.103)"/><path class="c" d="M320,326.68v13.992c0,3.851,5.919,6.978,9.776,6.978h87.6c3.857,0,9.776-3.127,9.776-6.978l-3.906-.152c0,1.965-5.67,3.559-7.5,3.559H331.418c-1.825,0-7.5-1.594-7.5-3.559V326.832Z" transform="translate(-125.333 -155.611)"/><path class="i" d="M418.292,341.861H333.941c-1.825,0-7.5-1.594-7.5-3.559V324.639c0-1.965,5.67-3.559,7.5-3.559h84.352c1.825,0,7.5,1.594,7.5,3.559V338.3C425.793,340.267,420.123,341.861,418.292,341.861Z" transform="translate(-127.856 -153.417)"/><path class="j" d="M410.247,297.723H398.19V289.79h4.295v1.065h-3.236v5.81h9.94v-5.81h-3.23V289.79h4.289Z" transform="translate(-155.958 -113.501)"/><path class="j" d="M406.659,281.08l-2.239,2.957h1.709v6.308h1.058v-6.308H408.9Z" transform="translate(-158.398 -110.09)"/><rect class="a" width="38.854" height="38.854" rx="6.37" transform="translate(256.82 45.832)"/><rect class="h" width="128.164" height="41.792" rx="10.36" transform="translate(40.837 156.786)"/><path class="a" d="M188.049,304.6a5.852,5.852,0,0,1,5.84,5.846v27.308a5.852,5.852,0,0,1-5.84,5.846V345a7.239,7.239,0,0,0,7.239-7.239V310.449a7.239,7.239,0,0,0-7.239-7.239H74.339a7.239,7.239,0,0,0-7.239,7.239h1.4a5.852,5.852,0,0,1,5.84-5.846h113.71" transform="translate(-26.281 -146.418)"/><path class="e" d="M188.061,305.5,67.13,311.346v27.308a7.239,7.239,0,0,0,7.221,7.239h113.71V344.5H74.351a5.852,5.852,0,0,1-5.84-5.846V311.346Z" transform="translate(-26.293 -147.315)"/><path class="e" d="M191.566,336.139V322.148c0-3.857-5.919-6.978-9.77-6.978H94.2c-3.851,0-9.776,3.121-9.776,6.978l3.905.152c0-1.965,5.676-3.559,7.5-3.559h84.339c1.825,0,7.5,1.594,7.5,3.559v13.663Z" transform="translate(-33.065 -151.103)"/><path class="c" d="M84.39,326.68v13.992c0,3.851,5.925,6.978,9.776,6.978h87.6c3.851,0,9.77-3.127,9.77-6.978l-3.9-.152c0,1.965-5.676,3.559-7.5,3.559H95.8c-1.825,0-7.5-1.594-7.5-3.559V326.832Z" transform="translate(-33.053 -155.611)"/><path class="j" d="M182.668,341.861H98.311c-1.825,0-7.5-1.594-7.5-3.559V324.639c0-1.965,5.676-3.559,7.5-3.559h84.358c1.825,0,7.5,1.594,7.5,3.559V338.3C190.169,340.267,184.493,341.861,182.668,341.861Z" transform="translate(-35.567 -153.417)"/><path class="j" d="M182.668,321.78c2.026,0,6.8,1.691,6.8,2.859V338.3c0,1.168-4.775,2.859-6.8,2.859H98.311c-2.026,0-6.8-1.691-6.8-2.859V324.639c0-1.168,4.775-2.859,6.8-2.859h84.358m0-.7H98.311c-1.825,0-7.5,1.594-7.5,3.559V338.3c0,1.965,5.676,3.559,7.5,3.559h84.358c1.825,0,7.5-1.594,7.5-3.559V324.639C190.169,322.674,184.493,321.08,182.668,321.08Z" transform="translate(-35.567 -153.417)"/><path class="h" d="M189.926,328.782v-3.693c0-1.168-4.775-2.859-6.8-2.859H98.761c-2.026,0-6.8,1.691-6.8,2.859v3.693Z" transform="translate(-36.018 -153.868)"/><path class="k" d="M183.119,323.623a12.684,12.684,0,0,1,5.4,1.788v1.977l1.405,1.393v-3.693c0-1.168-4.775-2.859-6.8-2.859H98.761c-2.026,0-6.8,1.691-6.8,2.859l1.4.322a12.684,12.684,0,0,1,5.4-1.788h84.358" transform="translate(-36.018 -153.868)"/><path class="e" d="M183.119,324.52m5.4,3.766H93.359v-1.977l-1.4-.323v3.693h97.966Z" transform="translate(-36.018 -154.765)"/><path class="h" d="M92,343.31v3.7c0,1.168,4.775,2.859,6.8,2.859h84.333c2.026,0,6.8-1.691,6.8-2.859v-3.7Z" transform="translate(-36.033 -162.124)"/><path class="l" d="M188.536,344.709v1.971l1.4.328v-3.7H92l1.4,1.4h95.137" transform="translate(-36.033 -162.124)"/><path class="e" d="M188.521,344.709m0,1.971a12.6,12.6,0,0,1-5.4,1.788H98.761a12.6,12.6,0,0,1-5.4-1.788v-1.971l-1.4-1.4v3.7c0,1.168,4.775,2.859,6.8,2.859h84.358c2.026,0,6.8-1.691,6.8-2.859Z" transform="translate(-36.018 -162.124)"/><path class="m" d="M187.983,338.752h-93.4a1.746,1.746,0,1,1,0-3.492h93.4a1.746,1.746,0,1,1,0,3.492Z" transform="translate(-36.362 -158.971)"/><path class="a" d="M132.822,339.854v-12.13h-7.3L124.78,327h8.711v13.529Z" transform="translate(-48.872 -155.736)"/><path class="n" d="M133.491,340.554H124.78V327l.7.7v12.13h7.3Z" transform="translate(-48.872 -155.736)"/><path class="h" d="M125.93,340.32h7.3V328.19h-7.3Z" transform="translate(-49.323 -156.202)"/><circle class="o" cx="0.882" cy="0.882" r="0.882" transform="translate(89.425 183.583)"/><rect class="h" width="128.164" height="41.792" rx="10.36" transform="translate(184.179 102.589)"/><path class="a" d="M423.684,215.505a5.846,5.846,0,0,1,5.84,5.846v27.308a5.846,5.846,0,0,1-5.84,5.846V255.9a7.239,7.239,0,0,0,7.239-7.239v-27.32a7.239,7.239,0,0,0-7.239-7.239H310a7.239,7.239,0,0,0-7.239,7.239h1.4a5.846,5.846,0,0,1,5.84-5.846H423.684" transform="translate(-118.581 -111.517)"/><path class="e" d="M423.684,216.41,302.76,222.244v27.308A7.239,7.239,0,0,0,310,256.791H423.684V255.4H310a5.846,5.846,0,0,1-5.84-5.846V222.244Z" transform="translate(-118.581 -112.422)"/><path class="e" d="M427.192,247.049V233.058c0-3.857-5.919-6.978-9.776-6.978h-87.6c-3.857,0-9.776,3.121-9.776,6.978l3.905.152c0-1.965,5.67-3.559,7.5-3.559h84.339c1.825,0,7.507,1.594,7.507,3.559V246.9Z" transform="translate(-125.349 -116.209)"/><path class="c" d="M320,237.59v13.992c0,3.851,5.919,6.978,9.776,6.978h87.6c3.857,0,9.776-3.127,9.776-6.978l-3.9-.152c0,1.965-5.676,3.559-7.507,3.559H331.418c-1.825,0-7.5-1.594-7.5-3.559V237.742Z" transform="translate(-125.333 -120.717)"/><path class="j" d="M418.292,252.771H333.941c-1.825,0-7.5-1.594-7.5-3.559V235.549c0-1.965,5.67-3.559,7.5-3.559h84.352c1.825,0,7.507,1.594,7.507,3.559v13.663C425.8,251.177,420.123,252.771,418.292,252.771Z" transform="translate(-127.856 -118.524)"/><path class="j" d="M418.292,232.69c2.026,0,6.807,1.691,6.807,2.859v13.663c0,1.168-4.781,2.859-6.807,2.859H333.941c-2.026,0-6.8-1.691-6.8-2.859V235.549c0-1.168,4.775-2.859,6.8-2.859h84.352m0-.7H333.941c-1.825,0-7.5,1.594-7.5,3.559v13.663c0,1.965,5.67,3.559,7.5,3.559h84.352c1.825,0,7.507-1.594,7.507-3.559V235.549C425.8,233.584,420.123,231.99,418.292,231.99Z" transform="translate(-127.856 -118.524)"/><path class="h" d="M425.55,239.692V236c0-1.168-4.781-2.859-6.807-2.859H334.391c-2.026,0-6.8,1.691-6.8,2.859v3.693Z" transform="translate(-128.306 -118.974)"/><path class="p" d="M418.743,234.533a12.712,12.712,0,0,1,5.408,1.788V238.3l1.4,1.393V236c0-1.168-4.781-2.859-6.807-2.859H334.391c-2.026,0-6.8,1.691-6.8,2.859l1.393.322a12.712,12.712,0,0,1,5.408-1.788h84.351" transform="translate(-128.306 -118.974)"/><path class="e" d="M418.743,235.43m5.408,3.766H328.983v-1.977l-1.393-.322v3.693h97.942Z" transform="translate(-128.306 -119.871)"/><path class="h" d="M327.59,254.22v3.7c0,1.168,4.775,2.859,6.8,2.859h84.351c2.026,0,6.807-1.691,6.807-2.859v-3.7Z" transform="translate(-128.306 -127.23)"/><path class="l" d="M424.162,255.619v1.971l1.4.328v-3.7H327.62l1.393,1.4h95.149" transform="translate(-128.318 -127.23)"/><path class="e" d="M424.151,255.619m0,1.971a12.63,12.63,0,0,1-5.408,1.788H334.391a12.629,12.629,0,0,1-5.408-1.788v-1.971l-1.393-1.4v3.7c0,1.168,4.775,2.859,6.8,2.859h84.351c2.026,0,6.807-1.691,6.807-2.859Z" transform="translate(-128.306 -127.23)"/><path class="q" d="M423.607,249.692H330.216a1.746,1.746,0,1,1,0-3.492h93.391a1.746,1.746,0,0,1,0,3.492Z" transform="translate(-128.651 -124.089)"/><path class="a" d="M368.416,250.775V238.669h-7.3L360.41,238h8.705v13.529Z" transform="translate(-141.161 -120.878)"/><path class="n" d="M369.115,251.5H360.41V238l.7.7v12.075h7.3Z" transform="translate(-141.161 -120.878)"/><path class="h" d="M361.56,251.206h7.3V239.1h-7.3Z" transform="translate(-141.611 -121.308)"/><circle class="o" cx="0.882" cy="0.882" r="0.882" transform="translate(232.767 129.386)"/><rect class="h" width="128.164" height="41.792" rx="10.36" transform="translate(40.837 210.982)"/><path class="a" d="M188.049,393.693a5.852,5.852,0,0,1,5.84,5.846v27.308a5.852,5.852,0,0,1-5.84,5.846v1.4a7.239,7.239,0,0,0,7.239-7.239V399.539a7.239,7.239,0,0,0-7.239-7.239H74.339a7.239,7.239,0,0,0-7.239,7.239h1.4a5.852,5.852,0,0,1,5.84-5.846h113.71" transform="translate(-26.281 -181.312)"/><path class="e" d="M188.061,394.59,67.13,400.436v27.308a7.239,7.239,0,0,0,7.221,7.245h113.71v-1.4H74.351a5.852,5.852,0,0,1-5.84-5.846V400.436Z" transform="translate(-26.293 -182.209)"/><path class="e" d="M191.566,425.229V411.238c0-3.857-5.919-6.978-9.77-6.978H94.2c-3.851,0-9.776,3.121-9.776,6.978l3.905.152c0-1.965,5.676-3.559,7.5-3.559h84.339c1.825,0,7.5,1.594,7.5,3.559v13.663Z" transform="translate(-33.065 -185.996)"/><path class="c" d="M84.39,415.77v13.992c0,3.851,5.925,6.978,9.776,6.978h87.6c3.851,0,9.77-3.127,9.77-6.978l-3.9-.152c0,1.965-5.676,3.559-7.5,3.559H95.8c-1.825,0-7.5-1.594-7.5-3.559v-13.7Z" transform="translate(-33.053 -190.504)"/><path class="j" d="M182.668,430.943H98.311c-1.825,0-7.5-1.594-7.5-3.559V413.709c0-1.965,5.676-3.559,7.5-3.559h84.358c1.825,0,7.5,1.594,7.5,3.559v13.663C190.169,429.349,184.493,430.943,182.668,430.943Z" transform="translate(-35.567 -188.303)"/><path class="j" d="M182.668,410.862c2.026,0,6.8,1.691,6.8,2.859v13.663c0,1.168-4.775,2.859-6.8,2.859H98.311c-2.026,0-6.8-1.691-6.8-2.859V413.709c0-1.168,4.775-2.859,6.8-2.859h84.358m0-.7H98.311c-1.825,0-7.5,1.594-7.5,3.559v13.663c0,1.965,5.676,3.559,7.5,3.559h84.358c1.825,0,7.5-1.594,7.5-3.559V413.709C190.169,411.744,184.493,410.15,182.668,410.15Z" transform="translate(-35.567 -188.303)"/><path class="h" d="M189.942,417.864v-3.7c0-1.168-4.775-2.859-6.8-2.859H98.777C96.751,411.312,92,413,92,414.159v3.693Z" transform="translate(-36.033 -188.753)"/><path class="r" d="M183.134,412.705a12.684,12.684,0,0,1,5.4,1.788v1.977l1.4,1.393v-3.7c0-1.168-4.775-2.859-6.8-2.859H98.777C96.751,411.312,92,413,92,414.159l1.4.323a12.683,12.683,0,0,1,5.4-1.789h84.333" transform="translate(-36.033 -188.753)"/><path class="e" d="M183.134,413.61m5.4,3.766H93.375V415.4L92,415.064v3.693h97.942Z" transform="translate(-36.033 -189.658)"/><path class="h" d="M92,432.4v3.7c0,1.168,4.775,2.859,6.8,2.859h84.333c2.026,0,6.8-1.691,6.8-2.859v-3.7Z" transform="translate(-36.033 -197.018)"/><path class="l" d="M188.536,433.8v1.971l1.4.328v-3.7H92l1.4,1.4h95.137" transform="translate(-36.033 -197.018)"/><path class="e" d="M188.536,433.8m0,1.971a12.6,12.6,0,0,1-5.4,1.789H98.777a12.6,12.6,0,0,1-5.4-1.789V433.8L92,432.4v3.7c0,1.168,4.775,2.859,6.8,2.859h84.333c2.026,0,6.8-1.691,6.8-2.859Z" transform="translate(-36.033 -197.018)"/><path class="q" d="M187.983,427.872h-93.4a1.746,1.746,0,1,1,0-3.492h93.4a1.746,1.746,0,1,1,0,3.492Z" transform="translate(-36.362 -193.877)"/><path class="a" d="M132.85,428.96V416.83h-7.3l-.7-.7h8.669v13.529Z" transform="translate(-48.9 -190.645)"/><path class="n" d="M133.491,429.659H124.78V416.13l.7.7v12.13h7.3Z" transform="translate(-48.872 -190.645)"/><path class="h" d="M125.93,429.41h7.3V417.28h-7.3Z" transform="translate(-49.323 -191.096)"/><circle class="o" cx="0.882" cy="0.882" r="0.882" transform="translate(89.425 237.779)"/><circle class="s" cx="4.137" cy="4.137" r="4.137" transform="translate(109.098 76.419)"/><circle class="s" cx="4.137" cy="4.137" r="4.137" transform="translate(128.17 76.419)"/><circle class="s" cx="4.137" cy="4.137" r="4.137" transform="translate(147.247 76.419)"/><g class="t" transform="translate(50.327 48.052)"><path class="c" d="M82.73,134.6v-9.922h3.486a4.562,4.562,0,0,1,2.762.693,2.373,2.373,0,0,1,.937,2.032,2.221,2.221,0,0,1-.377,1.29,2.147,2.147,0,0,1-1.04.815,2.1,2.1,0,0,1,1.217.773,2.306,2.306,0,0,1,.438,1.423,2.628,2.628,0,0,1-.913,2.172,4.112,4.112,0,0,1-2.64.724Zm2.05-5.779h1.515c1.034,0,1.551-.426,1.551-1.217a1.144,1.144,0,0,0-.389-.973,2.05,2.05,0,0,0-1.217-.3H84.78Zm0,1.448v2.689h1.764a1.7,1.7,0,0,0,1.132-.347,1.217,1.217,0,0,0,.4-.955,1.253,1.253,0,0,0-1.411-1.387Z" transform="translate(-82.73 -124.542)"/><path class="c" d="M106.164,132.571h-3.6l-.681,2.026H99.71l3.7-9.946h1.9l3.7,9.946h-2.178Zm-3.042-1.655h2.488l-1.253-3.723Z" transform="translate(-89.381 -124.534)"/><path class="c" d="M128.331,134.612h-2.05l-3.991-6.54v6.54h-2.05V124.69h2.05l4,6.558V124.69h2.044Z" transform="translate(-97.421 -124.55)"/><path class="c" d="M146.927,126.351h-3.042v8.261h-2.05v-8.261H138.83V124.69h8.1Z" transform="translate(-104.703 -124.55)"/><path class="c" d="M165.4,129.8a5.98,5.98,0,0,1-.523,2.573,3.924,3.924,0,0,1-1.484,1.709,4.094,4.094,0,0,1-2.214.608,4.143,4.143,0,0,1-2.208-.608,3.936,3.936,0,0,1-1.5-1.7,5.8,5.8,0,0,1-.541-2.537v-.493a5.968,5.968,0,0,1,.529-2.585,3.972,3.972,0,0,1,1.5-1.715,4.4,4.4,0,0,1,4.423,0,3.972,3.972,0,0,1,1.5,1.715,5.956,5.956,0,0,1,.529,2.579Zm-2.081-.45a4.155,4.155,0,0,0-.56-2.379,1.977,1.977,0,0,0-3.188,0,4.076,4.076,0,0,0-.566,2.354v.487a4.191,4.191,0,0,0,.56,2.36,1.951,1.951,0,0,0,3.194.03,4.2,4.2,0,0,0,.56-2.36Z" transform="translate(-111.791 -124.46)"/></g></g></g><g transform="translate(668.511 4054.038)"><path class="e" d="M-523.818,258.553l-35.27,42.706h70.54Z" transform="translate(559.088 -258.553)"/><rect class="e" width="21.521" height="49.817" transform="translate(24.51 39.518)"/></g></g></svg>