<svg xmlns="http://www.w3.org/2000/svg" xmlns:xlink="http://www.w3.org/1999/xlink" width="381.155" height="629.177" viewBox="0 0 381.155 629.177"><defs><style>.a{fill:#fff;}.b{fill:#1a1311;}.c{fill:#afaeae;}.d{fill:#f5f5f5;}.e{filter:url(#e);}.f{filter:url(#c);}.g{filter:url(#a);}</style><filter id="a" x="72.322" y="405.734" width="250.922" height="223.442" filterUnits="userSpaceOnUse"><feOffset dy="3" input="SourceAlpha"/><feGaussianBlur stdDeviation="5" result="b"/><feFlood flood-opacity="0.161"/><feComposite operator="in" in2="b"/><feComposite in="SourceGraphic"/></filter><filter id="c" x="127.822" y="0" width="253.333" height="478.944" filterUnits="userSpaceOnUse"><feOffset dy="3" input="SourceAlpha"/><feGaussianBlur stdDeviation="5" result="d"/><feFlood flood-opacity="0.2"/><feComposite operator="in" in2="d"/><feComposite in="SourceGraphic"/></filter><filter id="e" x="0" y="161.62" width="214.246" height="345.64" filterUnits="userSpaceOnUse"><feOffset dx="2" dy="3" input="SourceAlpha"/><feGaussianBlur stdDeviation="5" result="f"/><feFlood flood-opacity="0.161"/><feComposite operator="in" in2="f"/><feComposite in="SourceGraphic"/></filter></defs><g transform="translate(-986.79 -3177)"><g class="g" transform="matrix(1, 0, 0, 1, 986.79, 3177)"><path class="a" d="M183.38,59.015l-11.9-5.047-2.055-.871-2.8-7.206,5.524-13.03a1.07,1.07,0,0,0-.568-1.4L157.754,25.6a1.07,1.07,0,0,0-1.4.568l-5.524,13.03-7.124,3-2.055-.871-11.9-5.047a1.071,1.071,0,0,0-1.4.567l-5.863,13.829a1.071,1.071,0,0,0,.568,1.4l11.9,5.046-1.841,4.343,1.672.709a6.705,6.705,0,0,1,3.556,8.791l-.709,1.672-.086-.037-5.087,12,3.671,1.557-1.4,3.3a53.839,53.839,0,0,1-70.5,28.522L40.353,107.86a53.839,53.839,0,0,1-28.522-70.5l14.91-34.4L19.776,0,4.866,34.4A61.413,61.413,0,0,0,37.4,114.826l23.872,10.121a61.414,61.414,0,0,0,80.422-32.534l1.4-3.3,3.671,1.556,5.087-12-.086-.037.709-1.671a6.705,6.705,0,0,1,8.791-3.557l1.672.709,1.841-4.343,11.9,5.046a1.07,1.07,0,0,0,1.4-.567l5.863-13.829A1.069,1.069,0,0,0,183.38,59.015Z" transform="matrix(0.91, -0.41, 0.41, 0.91, 87.32, 492.59)"/></g><g transform="translate(1129.612 3189)"><g class="f" transform="matrix(1, 0, 0, 1, -142.82, -12)"><path class="a" d="M-136.913,214.75H-275.931a41.082,41.082,0,0,0-41.036,41.037v19.647a2.918,2.918,0,0,0-2.242,2.835v13.247a2.918,2.918,0,0,0,2.242,2.835v13.094a2.918,2.918,0,0,0-2.242,2.835v29.436a2.917,2.917,0,0,0,2.242,2.834v6.145a2.919,2.919,0,0,0-2.242,2.835v29.436a2.918,2.918,0,0,0,2.242,2.835V622.658a41.082,41.082,0,0,0,41.036,41.037h139.018a41.083,41.083,0,0,0,41.037-41.037V255.787A41.083,41.083,0,0,0-136.913,214.75Zm26.991,41.037V622.658a27.021,27.021,0,0,1-26.991,26.991H-275.931a27.022,27.022,0,0,1-26.991-26.991V255.787A27.022,27.022,0,0,1-275.931,228.8h11.057a3.922,3.922,0,0,1,3.1,3.834,12.875,12.875,0,0,0,12.857,12.839h84.988a12.914,12.914,0,0,0,12.783-11.544l.076-.011v-1.128a3.932,3.932,0,0,1,3.929-3.928l3.2-.062h7.025A27.021,27.021,0,0,1-109.923,255.787Z" transform="translate(462.03 -202.75)"/></g><path class="b" d="M-110.6,620.965a28.179,28.179,0,0,1-28.088,28.206H-276.716A28.179,28.179,0,0,1-304.8,620.965V255.206A28.179,28.179,0,0,1-276.716,227h11.1a5.2,5.2,0,0,1,4.242,5.117h0a11.5,11.5,0,0,0,11.474,11.505h84.382a11.492,11.492,0,0,0,11.465-11.347h.011a5.2,5.2,0,0,1,5.191-5.212l-.065-.062h10.22A28.179,28.179,0,0,1-110.6,255.206Z" transform="translate(320.547 -213.613)"/></g><g transform="translate(999.79 3350.62)"><g class="e" transform="matrix(1, 0, 0, 1, -13, -173.62)"><path class="a" d="M26.794-20H157.452A26.794,26.794,0,0,1,184.246,6.794V268.846a26.794,26.794,0,0,1-26.794,26.794H26.794A26.794,26.794,0,0,1,0,268.846V6.794A26.794,26.794,0,0,1,26.794-20Z" transform="translate(13 193.62)"/></g><g transform="translate(51.642 238.62)"><path class="c" d="M137.364,470.478a2.465,2.465,0,0,1-.807,1.706,2.749,2.749,0,0,1-1.872.612,2.664,2.664,0,0,1-1.438-.386,2.536,2.536,0,0,1-.96-1.1,3.974,3.974,0,0,1-.352-1.656v-.638a4,4,0,0,1,.342-1.7,2.586,2.586,0,0,1,.983-1.136,2.741,2.741,0,0,1,1.48-.4,2.64,2.64,0,0,1,1.82.613,2.556,2.556,0,0,1,.8,1.733h-1.182a1.685,1.685,0,0,0-.429-1.062,1.417,1.417,0,0,0-1.011-.326,1.387,1.387,0,0,0-1.19.566,2.824,2.824,0,0,0-.424,1.66v.606a2.994,2.994,0,0,0,.4,1.69,1.315,1.315,0,0,0,1.161.583,1.533,1.533,0,0,0,1.051-.315,1.637,1.637,0,0,0,.446-1.047Z" transform="translate(-131.936 -465.496)"/><path class="c" d="M144.99,473.731a1.786,1.786,0,0,1-.131-.474,1.919,1.919,0,0,1-2.58.132,1.4,1.4,0,0,1-.484-1.079,1.442,1.442,0,0,1,.6-1.246,2.922,2.922,0,0,1,1.725-.434h.7V470.3a.888.888,0,0,0-.221-.63.876.876,0,0,0-.671-.237,1,1,0,0,0-.638.194.6.6,0,0,0-.249.495H141.9a1.269,1.269,0,0,1,.277-.781,1.845,1.845,0,0,1,.753-.57,2.646,2.646,0,0,1,1.062-.206,2.133,2.133,0,0,1,1.422.448,1.6,1.6,0,0,1,.544,1.26v2.289a2.588,2.588,0,0,0,.192,1.093v.08Zm-1.252-.821a1.3,1.3,0,0,0,.636-.164,1.1,1.1,0,0,0,.448-.441v-.958h-.615a1.688,1.688,0,0,0-.953.221.715.715,0,0,0-.318.624.665.665,0,0,0,.217.523A.846.846,0,0,0,143.738,472.91Z" transform="translate(-135.579 -466.524)"/><path class="c" d="M154.741,471.245a3.022,3.022,0,0,1-.535,1.879,1.859,1.859,0,0,1-2.773.153v2.407h-1.14v-7.028h1.05l.047.516a1.674,1.674,0,0,1,1.365-.61,1.731,1.731,0,0,1,1.457.692,3.1,3.1,0,0,1,.528,1.921Zm-1.136-.1a2.119,2.119,0,0,0-.3-1.206.984.984,0,0,0-.866-.446,1.049,1.049,0,0,0-1,.578v2.252a1.059,1.059,0,0,0,1.013.591.984.984,0,0,0,.852-.438A2.332,2.332,0,0,0,153.605,471.146Z" transform="translate(-138.718 -466.524)"/><path class="c" d="M161.815,473.731a1.742,1.742,0,0,1-.131-.474,1.919,1.919,0,0,1-2.581.132,1.4,1.4,0,0,1-.483-1.079,1.44,1.44,0,0,1,.6-1.246,2.92,2.92,0,0,1,1.724-.434h.7V470.3a.888.888,0,0,0-.221-.63.875.875,0,0,0-.671-.237,1,1,0,0,0-.638.194.6.6,0,0,0-.248.495h-1.14a1.268,1.268,0,0,1,.276-.781,1.846,1.846,0,0,1,.753-.57,2.646,2.646,0,0,1,1.062-.206,2.133,2.133,0,0,1,1.422.448,1.6,1.6,0,0,1,.544,1.26v2.289a2.6,2.6,0,0,0,.192,1.093v.08Zm-1.253-.821a1.294,1.294,0,0,0,.636-.164,1.1,1.1,0,0,0,.448-.441v-.958h-.615a1.684,1.684,0,0,0-.952.221.714.714,0,0,0-.319.624.666.666,0,0,0,.218.523A.846.846,0,0,0,160.562,472.91Z" transform="translate(-141.795 -466.524)"/><path class="c" d="M169.081,472.915a1.029,1.029,0,0,0,.709-.249.848.848,0,0,0,.3-.614h1.074a1.672,1.672,0,0,1-.3.884,1.93,1.93,0,0,1-.75.65,2.237,2.237,0,0,1-1.023.239,2.163,2.163,0,0,1-1.689-.69,2.733,2.733,0,0,1-.624-1.9v-.118a2.689,2.689,0,0,1,.619-1.855,2.145,2.145,0,0,1,1.689-.7,2.088,2.088,0,0,1,1.475.527,1.892,1.892,0,0,1,.6,1.387H170.09a1.047,1.047,0,0,0-.3-.718.959.959,0,0,0-.711-.281,1,1,0,0,0-.854.4,2.049,2.049,0,0,0-.305,1.218v.183a2.079,2.079,0,0,0,.3,1.232A1,1,0,0,0,169.081,472.915Z" transform="translate(-144.811 -466.524)"/><path class="c" d="M175.1,466.261a.6.6,0,0,1,.166-.436.627.627,0,0,1,.476-.174.637.637,0,0,1,.479.174.6.6,0,0,1,.169.436.587.587,0,0,1-.169.43.646.646,0,0,1-.479.171.636.636,0,0,1-.476-.171A.59.59,0,0,1,175.1,466.261Zm1.21,6.4h-1.14V467.58h1.14Z" transform="translate(-147.885 -465.449)"/><path class="c" d="M180.1,466.753v1.234h.9v.844h-.9v2.834a.625.625,0,0,0,.115.42.532.532,0,0,0,.41.129,1.774,1.774,0,0,0,.4-.047v.881a2.786,2.786,0,0,1-.75.108q-1.314,0-1.314-1.45v-2.876h-.835v-.844h.835v-1.234Z" transform="translate(-149.001 -465.856)"/><path class="c" d="M185.523,472.153l1.032-3.443h1.215l-2.017,5.846a1.64,1.64,0,0,1-1.576,1.281,2.033,2.033,0,0,1-.549-.085v-.886l.216.013a1.11,1.11,0,0,0,.65-.157,1.037,1.037,0,0,0,.345-.527l.164-.436-1.783-5.049h1.229Z" transform="translate(-150.884 -466.579)"/><path class="c" d="M192.177,468.538a.652.652,0,0,1,.493.181.628.628,0,0,1,.173.453.606.606,0,0,1-.173.443.769.769,0,0,1-.976,0,.6.6,0,0,1-.178-.446.626.626,0,0,1,.174-.453A.644.644,0,0,1,192.177,468.538Zm0,3.983a.65.65,0,0,1,.493.182.626.626,0,0,1,.173.452.6.6,0,0,1-.173.443.767.767,0,0,1-.976,0,.593.593,0,0,1-.178-.446.623.623,0,0,1,.174-.452A.641.641,0,0,1,192.177,472.521Z" transform="translate(-153.949 -466.516)"/><path class="c" d="M195.76,469.371l.371-3.444H199.8v.985h-2.721l-.188,1.633a2.108,2.108,0,0,1,1.07-.272,1.9,1.9,0,0,1,1.518.624,2.474,2.474,0,0,1,.542,1.68,2.277,2.277,0,0,1-.6,1.658,2.192,2.192,0,0,1-1.647.617,2.3,2.3,0,0,1-1.555-.532,1.927,1.927,0,0,1-.668-1.406h1.1a1.205,1.205,0,0,0,.356.763,1.087,1.087,0,0,0,.76.265.979.979,0,0,0,.818-.375,1.62,1.62,0,0,0,.294-1.023,1.43,1.43,0,0,0-.324-.987,1.132,1.132,0,0,0-.892-.364,1.243,1.243,0,0,0-.994.4Z" transform="translate(-155.439 -465.551)"/><path class="c" d="M208.5,469.826a3.731,3.731,0,0,1-.551,2.222,1.948,1.948,0,0,1-1.678.748,1.974,1.974,0,0,1-1.668-.729,3.569,3.569,0,0,1-.575-2.161v-1.182a3.67,3.67,0,0,1,.552-2.21,2.3,2.3,0,0,1,3.354-.019,3.559,3.559,0,0,1,.566,2.149Zm-1.141-1.276a2.9,2.9,0,0,0-.262-1.41,1,1,0,0,0-1.656-.023,2.673,2.673,0,0,0-.277,1.325v1.549a2.97,2.97,0,0,0,.267,1.426.9.9,0,0,0,.84.469.882.882,0,0,0,.811-.434,2.778,2.778,0,0,0,.277-1.358Z" transform="translate(-158.574 -465.496)"/><path class="c" d="M217.165,469.826a3.731,3.731,0,0,1-.551,2.222,1.948,1.948,0,0,1-1.678.748,1.975,1.975,0,0,1-1.668-.729,3.568,3.568,0,0,1-.575-2.161v-1.182a3.67,3.67,0,0,1,.552-2.21,2.3,2.3,0,0,1,3.354-.019,3.559,3.559,0,0,1,.566,2.149Zm-1.14-1.276a2.9,2.9,0,0,0-.263-1.41,1,1,0,0,0-1.656-.023,2.674,2.674,0,0,0-.277,1.325v1.549a2.97,2.97,0,0,0,.267,1.426.9.9,0,0,0,.84.469.883.883,0,0,0,.812-.434,2.792,2.792,0,0,0,.277-1.358Z" transform="translate(-161.774 -465.496)"/><path class="c" d="M225.826,469.826a3.726,3.726,0,0,1-.551,2.222,1.947,1.947,0,0,1-1.677.748,1.973,1.973,0,0,1-1.668-.729,3.569,3.569,0,0,1-.575-2.161v-1.182a3.67,3.67,0,0,1,.551-2.21,2.3,2.3,0,0,1,3.355-.019,3.554,3.554,0,0,1,.565,2.149Zm-1.14-1.276a2.9,2.9,0,0,0-.262-1.41,1,1,0,0,0-1.656-.023,2.673,2.673,0,0,0-.277,1.325v1.549a2.963,2.963,0,0,0,.267,1.426.9.9,0,0,0,.84.469.883.883,0,0,0,.811-.434,2.779,2.779,0,0,0,.277-1.358Z" transform="translate(-164.974 -465.496)"/><path class="c" d="M231.232,468.655l.033.53a1.825,1.825,0,0,1,1.464-.624,1.4,1.4,0,0,1,1.393.779,1.8,1.8,0,0,1,1.558-.779,1.586,1.586,0,0,1,1.25.464,2.047,2.047,0,0,1,.42,1.37v3.336H236.21v-3.3a1.013,1.013,0,0,0-.211-.709.926.926,0,0,0-.7-.225.947.947,0,0,0-.636.209,1.1,1.1,0,0,0-.345.546l0,3.482h-1.14v-3.341a.814.814,0,0,0-.915-.9,1,1,0,0,0-.971.559v3.679h-1.14v-5.076Z" transform="translate(-168.227 -466.524)"/><path class="c" d="M247.063,471.167h-2.646l-.554,1.591h-1.234l2.581-6.831h1.065l2.585,6.831h-1.239Zm-2.313-.956h1.98l-.99-2.834Z" transform="translate(-172.834 -465.551)"/><path class="c" d="M254.678,468.015a1.783,1.783,0,0,1,1.412-.648q1.624,0,1.647,1.853v3.317H256.6v-3.276a1,1,0,0,0-.228-.743.929.929,0,0,0-.668-.219,1.1,1.1,0,0,0-1.023.61v3.627h-1.14v-7.207h1.14Z" transform="translate(-176.865 -465.331)"/><path class="c" d="M133.572,494.093H132.39v-6.831h1.182Z" transform="translate(-132.104 -473.434)"/><path class="c" d="M137.452,489.99l.033.586a1.826,1.826,0,0,1,1.478-.68q1.586,0,1.614,1.815v3.355h-1.141v-3.289a1.043,1.043,0,0,0-.209-.716.875.875,0,0,0-.682-.233,1.1,1.1,0,0,0-1.028.624v3.613h-1.14V489.99Z" transform="translate(-133.577 -474.407)"/><path class="c" d="M149.324,492.579a3.024,3.024,0,0,1-.535,1.879,1.859,1.859,0,0,1-2.773.153v2.407h-1.14V489.99h1.05l.047.516a1.674,1.674,0,0,1,1.365-.61,1.731,1.731,0,0,1,1.457.692,3.1,3.1,0,0,1,.528,1.921Zm-1.136-.1a2.119,2.119,0,0,0-.3-1.206.984.984,0,0,0-.866-.446,1.049,1.049,0,0,0-1,.578v2.252a1.059,1.059,0,0,0,1.014.591.982.982,0,0,0,.851-.439A2.329,2.329,0,0,0,148.188,492.481Z" transform="translate(-136.717 -474.407)"/><path class="c" d="M156.52,494.624a1.768,1.768,0,0,1-1.426.591,1.577,1.577,0,0,1-1.25-.482,2.059,2.059,0,0,1-.425-1.4v-3.289h1.141v3.274q0,.968.8.967a1.126,1.126,0,0,0,1.121-.6v-3.645h1.14v5.076h-1.074Z" transform="translate(-139.873 -474.462)"/><path class="c" d="M163.035,488.088v1.234h.9v.844h-.9V493a.621.621,0,0,0,.115.42.531.531,0,0,0,.41.129,1.778,1.778,0,0,0,.4-.047v.882a2.786,2.786,0,0,1-.751.108q-1.314,0-1.313-1.45v-2.876h-.835v-.844h.835v-1.234Z" transform="translate(-142.697 -473.739)"/><path class="c" d="M167.7,489.873a.652.652,0,0,1,.493.181.629.629,0,0,1,.173.453.606.606,0,0,1-.173.443.77.77,0,0,1-.976,0,.6.6,0,0,1-.178-.446.626.626,0,0,1,.174-.453A.643.643,0,0,1,167.7,489.873Zm0,3.983a.65.65,0,0,1,.493.182.626.626,0,0,1,.173.452.6.6,0,0,1-.173.443.767.767,0,0,1-.976,0,.593.593,0,0,1-.178-.446.624.624,0,0,1,.174-.452A.642.642,0,0,1,167.7,493.856Z" transform="translate(-144.904 -474.399)"/><path class="c" d="M171.279,490.706l.371-3.444h3.669v.985H172.6l-.188,1.633a2.109,2.109,0,0,1,1.07-.272,1.9,1.9,0,0,1,1.518.624,2.473,2.473,0,0,1,.542,1.68,2.276,2.276,0,0,1-.6,1.658,2.192,2.192,0,0,1-1.647.617,2.3,2.3,0,0,1-1.555-.532,1.926,1.926,0,0,1-.668-1.405h1.1a1.2,1.2,0,0,0,.356.763,1.087,1.087,0,0,0,.76.265.979.979,0,0,0,.818-.375,1.619,1.619,0,0,0,.294-1.023,1.43,1.43,0,0,0-.324-.987,1.132,1.132,0,0,0-.892-.365,1.243,1.243,0,0,0-.994.4Z" transform="translate(-146.394 -473.434)"/><path class="c" d="M181.92,492.606l1.736-5.344h1.3l-2.458,6.831h-1.149l-2.45-6.831h1.3Z" transform="translate(-149.289 -473.434)"/><path class="c" d="M189.54,494.679h-.9l2.689-7.417h.9Z" transform="translate(-152.888 -473.434)"/><path class="c" d="M199.984,494.037H195.39v-.783l2.276-2.482a5.63,5.63,0,0,0,.7-.917,1.487,1.487,0,0,0,.209-.739,1.12,1.12,0,0,0-.275-.788.952.952,0,0,0-.738-.3,1.1,1.1,0,0,0-.859.339,1.328,1.328,0,0,0-.305.924h-1.14a2.235,2.235,0,0,1,.284-1.124,1.954,1.954,0,0,1,.812-.776,2.579,2.579,0,0,1,1.217-.277,2.314,2.314,0,0,1,1.57.5,1.737,1.737,0,0,1,.574,1.382,2.346,2.346,0,0,1-.289,1.072,6.1,6.1,0,0,1-.945,1.274l-1.67,1.788h3.172Z" transform="translate(-155.332 -473.378)"/><path class="c" d="M207.885,492.5H205.24l-.554,1.591h-1.234l2.58-6.831H207.1l2.585,6.831h-1.238Zm-2.313-.957h1.98l-.99-2.834Z" transform="translate(-158.359 -473.434)"/><path class="c" d="M137.6,512.135a4.2,4.2,0,0,1-.347,1.762,2.624,2.624,0,0,1-.992,1.163,2.913,2.913,0,0,1-2.965,0,2.66,2.66,0,0,1-1-1.156,4.048,4.048,0,0,1-.359-1.732v-.384a4.151,4.151,0,0,1,.354-1.764,2.658,2.658,0,0,1,1-1.17,2.716,2.716,0,0,1,1.48-.407,2.746,2.746,0,0,1,1.48.4,2.628,2.628,0,0,1,1,1.154,4.15,4.15,0,0,1,.356,1.752Zm-1.187-.357a2.985,2.985,0,0,0-.429-1.74,1.516,1.516,0,0,0-2.421,0,2.927,2.927,0,0,0-.443,1.7v.394a2.963,2.963,0,0,0,.439,1.741,1.413,1.413,0,0,0,1.218.615,1.4,1.4,0,0,0,1.213-.6,3.031,3.031,0,0,0,.424-1.755Z" transform="translate(-131.936 -481.261)"/><path class="c" d="M145.685,515.959a1.768,1.768,0,0,1-1.426.591,1.575,1.575,0,0,1-1.25-.483,2.054,2.054,0,0,1-.425-1.4V511.38h1.141v3.274q0,.968.8.967a1.128,1.128,0,0,0,1.121-.6V511.38h1.14v5.076h-1.074Z" transform="translate(-135.87 -482.345)"/><path class="c" d="M152.2,509.423v1.234h.9v.844h-.9v2.834a.622.622,0,0,0,.115.42.532.532,0,0,0,.41.129,1.782,1.782,0,0,0,.4-.047v.882a2.817,2.817,0,0,1-.751.108q-1.314,0-1.313-1.45V511.5h-.835v-.844h.835v-1.234Z" transform="translate(-138.694 -481.622)"/><path class="c" d="M160.6,513.914a3.02,3.02,0,0,1-.535,1.879,1.858,1.858,0,0,1-2.772.153v2.407h-1.14v-7.028h1.05l.047.516a1.674,1.674,0,0,1,1.365-.61,1.734,1.734,0,0,1,1.457.692,3.1,3.1,0,0,1,.528,1.921Zm-1.136-.1a2.119,2.119,0,0,0-.3-1.206.984.984,0,0,0-.866-.446,1.049,1.049,0,0,0-1,.578v2.252a1.059,1.059,0,0,0,1.013.591.982.982,0,0,0,.851-.439A2.323,2.323,0,0,0,159.469,513.816Z" transform="translate(-140.885 -482.289)"/><path class="c" d="M167.8,515.959a1.768,1.768,0,0,1-1.426.591,1.575,1.575,0,0,1-1.25-.483,2.055,2.055,0,0,1-.425-1.4V511.38h1.141v3.274q0,.968.8.967a1.128,1.128,0,0,0,1.122-.6V511.38h1.14v5.076h-1.074Z" transform="translate(-144.041 -482.345)"/><path class="c" d="M174.316,509.423v1.234h.9v.844h-.9v2.834a.622.622,0,0,0,.115.42.531.531,0,0,0,.41.129,1.772,1.772,0,0,0,.4-.047v.882a2.812,2.812,0,0,1-.75.108q-1.314,0-1.313-1.45V511.5h-.835v-.844h.835v-1.234Z" transform="translate(-146.865 -481.622)"/><path class="c" d="M178.977,511.208a.65.65,0,0,1,.492.181.626.626,0,0,1,.174.453.605.605,0,0,1-.174.443.768.768,0,0,1-.975,0,.594.594,0,0,1-.178-.446.628.628,0,0,1,.173-.453A.646.646,0,0,1,178.977,511.208Zm0,3.983a.648.648,0,0,1,.492.181.624.624,0,0,1,.174.452.6.6,0,0,1-.174.443.766.766,0,0,1-.975,0,.594.594,0,0,1-.178-.446.626.626,0,0,1,.173-.452A.644.644,0,0,1,178.977,515.191Z" transform="translate(-149.072 -482.281)"/><path class="c" d="M182.56,512.041l.371-3.444H186.6v.985h-2.721l-.188,1.633a2.108,2.108,0,0,1,1.07-.272,1.9,1.9,0,0,1,1.518.624,2.472,2.472,0,0,1,.542,1.68,2.276,2.276,0,0,1-.6,1.658,2.193,2.193,0,0,1-1.647.617,2.3,2.3,0,0,1-1.556-.532,1.927,1.927,0,0,1-.668-1.405h1.1a1.2,1.2,0,0,0,.356.763,1.087,1.087,0,0,0,.76.265.98.98,0,0,0,.818-.375,1.62,1.62,0,0,0,.293-1.023,1.429,1.429,0,0,0-.323-.987,1.133,1.133,0,0,0-.892-.364,1.246,1.246,0,0,0-.995.4Z" transform="translate(-150.562 -481.317)"/><path class="c" d="M193.2,513.941l1.736-5.344h1.3l-2.458,6.831h-1.15l-2.449-6.831h1.3Z" transform="translate(-153.457 -481.317)"/><path class="c" d="M200.821,516.014h-.9l2.689-7.417h.9Z" transform="translate(-157.056 -481.317)"/><path class="c" d="M211.264,515.373h-4.593v-.784l2.276-2.482a5.63,5.63,0,0,0,.7-.917,1.486,1.486,0,0,0,.209-.739,1.123,1.123,0,0,0-.275-.788.953.953,0,0,0-.739-.3,1.1,1.1,0,0,0-.858.339,1.326,1.326,0,0,0-.305.924h-1.14a2.234,2.234,0,0,1,.284-1.124,1.955,1.955,0,0,1,.811-.776,2.582,2.582,0,0,1,1.218-.278,2.312,2.312,0,0,1,1.569.5,1.735,1.735,0,0,1,.575,1.382,2.345,2.345,0,0,1-.289,1.072,6.1,6.1,0,0,1-.945,1.274l-1.67,1.788h3.172Z" transform="translate(-159.5 -481.261)"/><path class="c" d="M219.166,513.837H216.52l-.554,1.591h-1.234l2.581-6.831h1.065l2.585,6.831h-1.239Zm-2.313-.957h1.98l-.989-2.834Z" transform="translate(-162.527 -481.317)"/></g><path class="d" d="M107.139,185.759l-1.228-1.213.28.277,2.761-2.795-2.794-2.76,8.45-8.553a10.919,10.919,0,1,0-15.536-15.348l-.027-.027-8.45,8.553-2.767-2.733-2.76,2.794-.975-.963-9.2-9.086a1.07,1.07,0,0,0-1.513.009L59.509,167.953a1.07,1.07,0,0,0,.009,1.513l10.489,10.363a6.706,6.706,0,0,1,.057,9.482L68.789,190.6l-.066-.065-9.16,9.272,2.666,2.634-12.2,12.346v11.057l17.725-17.941,2.861,2.827,9.161-9.272-.066-.065,1.276-1.292a6.706,6.706,0,0,1,9.482-.058l10.489,10.363a1.069,1.069,0,0,0,1.513-.009l13.872-14.041a1.07,1.07,0,0,0-.009-1.513Z" transform="translate(-50.032 -137.782)"/></g></g></svg>