<svg id="레이어_1" data-name="레이어 1" xmlns="http://www.w3.org/2000/svg" xmlns:xlink="http://www.w3.org/1999/xlink" viewBox="0 0 580 473.34"><defs><style>.cls-1{fill:#f9f9f9;}.cls-2{fill:#cdcecd;}.cls-3{fill:#ededed;}.cls-4{fill:#f5f5f5;}.cls-5{fill:#202121;}.cls-6{fill:#e8e8e8;}.cls-7{fill:#fff;}.cls-8{fill:#e2e1e1;}.cls-9{fill:#959595;}.cls-10{fill:url(#무제_그라디언트_9);}.cls-11{fill:url(#무제_그라디언트_9-2);}.cls-12{fill:url(#무제_그라디언트_8);}.cls-13{fill:#bbb;}.cls-14{fill:#39b8ff;}.cls-15{fill:url(#무제_그라디언트_9-3);}.cls-16{fill:url(#무제_그라디언트_9-4);}.cls-17{fill:url(#무제_그라디언트_8-2);}.cls-18{fill:url(#무제_그라디언트_9-5);}.cls-19{fill:url(#무제_그라디언트_9-6);}.cls-20{fill:url(#무제_그라디언트_8-3);}.cls-21{fill:#1aff1a;}.cls-22{opacity:0.2;}</style><linearGradient id="무제_그라디언트_9" x1="91.96" y1="327.61" x2="252.99" y2="327.61" gradientUnits="userSpaceOnUse"><stop offset="0" stop-color="#fff"/><stop offset="1" stop-color="#fff"/></linearGradient><linearGradient id="무제_그라디언트_9-2" x1="172.43" y1="348.5" x2="172.54" y2="343.01" xlink:href="#무제_그라디언트_9"/><linearGradient id="무제_그라디언트_8" x1="172.22" y1="343.09" x2="172.59" y2="335.98" gradientUnits="userSpaceOnUse"><stop offset="0" stop-color="#cdcecd"/><stop offset="1" stop-color="#fff"/></linearGradient><linearGradient id="무제_그라디언트_9-3" x1="327.59" y1="238.52" x2="488.62" y2="238.52" xlink:href="#무제_그라디언트_9"/><linearGradient id="무제_그라디언트_9-4" x1="408.06" y1="259.41" x2="408.17" y2="253.92" xlink:href="#무제_그라디언트_9"/><linearGradient id="무제_그라디언트_8-2" x1="407.85" y1="254" x2="408.21" y2="246.89" xlink:href="#무제_그라디언트_8"/><linearGradient id="무제_그라디언트_9-5" x1="91.96" y1="416.7" x2="252.99" y2="416.7" xlink:href="#무제_그라디언트_9"/><linearGradient id="무제_그라디언트_9-6" x1="172.43" y1="437.59" x2="172.54" y2="432.1" xlink:href="#무제_그라디언트_9"/><linearGradient id="무제_그라디언트_8-3" x1="172.22" y1="432.18" x2="172.59" y2="425.07" xlink:href="#무제_그라디언트_8"/></defs><title>main_product</title><rect class="cls-1" x="10.92" width="569.08" height="460.52" rx="51.4"/><rect class="cls-2" y="12.82" width="569.08" height="460.52" rx="51.4"/><rect class="cls-3" x="5.74" y="7.08" width="569.08" height="460.52" rx="51.4"/><rect class="cls-4" x="39.19" y="34.14" width="502.2" height="406.39" rx="33.34"/><rect class="cls-5" x="67.13" y="60.4" width="446.31" height="93.74" rx="10.36"/><rect class="cls-6" x="67.13" y="168.64" width="210.68" height="68.7" rx="10.36"/><path class="cls-7" d="M265.92,216.41a9.62,9.62,0,0,1,9.6,9.61v44.89a9.62,9.62,0,0,1-9.6,9.61v2.29a11.9,11.9,0,0,0,11.9-11.9V226a11.9,11.9,0,0,0-11.9-11.9H79A11.9,11.9,0,0,0,67.13,226h2.3a9.62,9.62,0,0,1,9.6-9.61H265.92" transform="translate(0 -45.47)"/><path class="cls-2" d="M265.92,216.41,67.13,226v44.89A11.9,11.9,0,0,0,79,282.81H265.92v-2.29H79a9.62,9.62,0,0,1-9.6-9.61V226Z" transform="translate(0 -45.47)"/><path class="cls-2" d="M260.55,260.55v-23c0-6.34-9.73-11.47-16.06-11.47h-144c-6.33,0-16.07,5.13-16.07,11.47l6.42.25c0-3.23,9.33-5.85,12.33-5.85H241.81c3,0,12.33,2.62,12.33,5.85V260.3Z" transform="translate(0 -45.47)"/><path class="cls-4" d="M84.39,237.59v23c0,6.33,9.74,11.47,16.07,11.47h144c6.33,0,16.06-5.14,16.06-11.47l-6.41-.25c0,3.23-9.33,5.85-12.33,5.85H103.14c-3,0-12.33-2.62-12.33-5.85V237.84Z" transform="translate(0 -45.47)"/><path class="cls-8" d="M241.81,266.15H103.14c-3,0-12.33-2.62-12.33-5.85V237.84c0-3.23,9.33-5.85,12.33-5.85H241.81c3,0,12.33,2.62,12.33,5.85V260.3C254.14,263.53,244.81,266.15,241.81,266.15Z" transform="translate(0 -45.47)"/><polygon class="cls-9" points="182.39 213.75 162.56 213.75 162.56 200.7 169.62 200.7 169.62 202.44 164.31 202.44 164.31 212 180.64 212 180.64 202.44 175.33 202.44 175.33 200.7 182.39 200.7 182.39 213.75"/><polygon class="cls-9" points="172.47 191.99 168.8 196.85 171.6 196.85 171.6 207.22 173.35 207.22 173.35 196.85 176.15 196.85 172.47 191.99"/><rect class="cls-6" x="302.76" y="346.82" width="210.68" height="68.7" rx="10.36"/><path class="cls-7" d="M501.54,394.59a9.61,9.61,0,0,1,9.6,9.61v44.89a9.61,9.61,0,0,1-9.6,9.61V461a11.9,11.9,0,0,0,11.9-11.9V404.2a11.9,11.9,0,0,0-11.9-11.9H314.66a11.9,11.9,0,0,0-11.9,11.9h2.3a9.61,9.61,0,0,1,9.6-9.61H501.54" transform="translate(0 -45.47)"/><path class="cls-2" d="M501.54,394.59,302.76,404.2v44.89a11.9,11.9,0,0,0,11.9,11.9H501.54V458.7H314.66a9.61,9.61,0,0,1-9.6-9.61V404.2Z" transform="translate(0 -45.47)"/><path class="cls-2" d="M496.18,438.73v-23c0-6.34-9.73-11.47-16.07-11.47h-144c-6.34,0-16.07,5.13-16.07,11.47l6.42.25c0-3.23,9.32-5.85,12.33-5.85H477.43c3,0,12.33,2.62,12.33,5.85v22.46Z" transform="translate(0 -45.47)"/><path class="cls-4" d="M320,415.77v23c0,6.33,9.73,11.47,16.07,11.47h144c6.34,0,16.07-5.14,16.07-11.47l-6.42-.25c0,3.23-9.32,5.85-12.33,5.85H338.77c-3,0-12.33-2.62-12.33-5.85V416Z" transform="translate(0 -45.47)"/><path class="cls-8" d="M477.43,444.33H338.77c-3,0-12.33-2.62-12.33-5.85V416c0-3.23,9.32-5.85,12.33-5.85H477.43c3,0,12.33,2.62,12.33,5.85v22.46C489.76,441.71,480.44,444.33,477.43,444.33Z" transform="translate(0 -45.47)"/><polygon class="cls-9" points="418.01 391.93 398.19 391.93 398.19 378.88 405.25 378.88 405.25 380.63 399.93 380.63 399.93 390.18 416.27 390.18 416.27 380.63 410.96 380.63 410.96 378.88 418.01 378.88 418.01 391.93"/><polygon class="cls-9" points="408.1 370.17 404.42 375.04 407.23 375.04 407.23 385.4 408.97 385.4 408.97 375.04 411.78 375.04 408.1 370.17"/><rect class="cls-6" x="302.76" y="257.73" width="210.68" height="68.7" rx="10.36"/><path class="cls-7" d="M501.54,305.5a9.61,9.61,0,0,1,9.6,9.61V360a9.61,9.61,0,0,1-9.6,9.61v2.29a11.9,11.9,0,0,0,11.9-11.9V315.11a11.9,11.9,0,0,0-11.9-11.9H314.66a11.9,11.9,0,0,0-11.9,11.9h2.3a9.61,9.61,0,0,1,9.6-9.61H501.54" transform="translate(0 -45.47)"/><path class="cls-2" d="M501.54,305.5m-198.78,9.61V360a11.9,11.9,0,0,0,11.9,11.9H501.54v-2.29H314.66a9.61,9.61,0,0,1-9.6-9.61V315.11Z" transform="translate(0 -45.47)"/><path class="cls-2" d="M496.18,349.64v-23c0-6.34-9.73-11.47-16.07-11.47h-144c-6.34,0-16.07,5.13-16.07,11.47l6.42.25c0-3.23,9.32-5.85,12.33-5.85H477.43c3,0,12.33,2.62,12.33,5.85v22.46Z" transform="translate(0 -45.47)"/><path class="cls-4" d="M320,326.68v23c0,6.33,9.73,11.47,16.07,11.47h144c6.34,0,16.07-5.14,16.07-11.47l-6.42-.25c0,3.23-9.32,5.85-12.33,5.85H338.77c-3,0-12.33-2.62-12.33-5.85V326.93Z" transform="translate(0 -45.47)"/><path class="cls-8" d="M477.43,355.24H338.77c-3,0-12.33-2.62-12.33-5.85V326.93c0-3.23,9.32-5.85,12.33-5.85H477.43c3,0,12.33,2.62,12.33,5.85v22.46C489.76,352.62,480.44,355.24,477.43,355.24Z" transform="translate(0 -45.47)"/><polygon class="cls-9" points="418.01 302.83 398.19 302.83 398.19 289.79 405.25 289.79 405.25 291.54 399.93 291.54 399.93 301.09 416.27 301.09 416.27 291.54 410.96 291.54 410.96 289.79 418.01 289.79 418.01 302.83"/><polygon class="cls-9" points="408.1 281.08 404.42 285.94 407.23 285.94 407.23 296.31 408.97 296.31 408.97 285.94 411.78 285.94 408.1 281.08"/><rect class="cls-7" x="422.17" y="75.34" width="63.87" height="63.87" rx="6.37"/><rect class="cls-6" x="67.13" y="257.73" width="210.68" height="68.7" rx="10.36"/><path class="cls-7" d="M265.92,305.5a9.62,9.62,0,0,1,9.6,9.61V360a9.62,9.62,0,0,1-9.6,9.61v2.29a11.9,11.9,0,0,0,11.9-11.9V315.11a11.9,11.9,0,0,0-11.9-11.9H79a11.9,11.9,0,0,0-11.9,11.9h2.3A9.62,9.62,0,0,1,79,305.5H265.92" transform="translate(0 -45.47)"/><path class="cls-2" d="M265.92,305.5,67.13,315.11V360A11.9,11.9,0,0,0,79,371.9H265.92v-2.29H79a9.62,9.62,0,0,1-9.6-9.61V315.11Z" transform="translate(0 -45.47)"/><path class="cls-2" d="M260.55,349.64v-23c0-6.34-9.73-11.47-16.06-11.47h-144c-6.33,0-16.07,5.13-16.07,11.47l6.42.25c0-3.23,9.33-5.85,12.33-5.85H241.81c3,0,12.33,2.62,12.33,5.85v22.46Z" transform="translate(0 -45.47)"/><path class="cls-4" d="M84.39,326.68v23c0,6.33,9.74,11.47,16.07,11.47h144c6.33,0,16.06-5.14,16.06-11.47l-6.41-.25c0,3.23-9.33,5.85-12.33,5.85H103.14c-3,0-12.33-2.62-12.33-5.85V326.93Z" transform="translate(0 -45.47)"/><path class="cls-9" d="M241.81,355.24H103.14c-3,0-12.33-2.62-12.33-5.85V326.93c0-3.23,9.33-5.85,12.33-5.85H241.81c3,0,12.33,2.62,12.33,5.85v22.46C254.14,352.62,244.81,355.24,241.81,355.24Z" transform="translate(0 -45.47)"/><path class="cls-9" d="M241.81,322.23c3.33,0,11.18,2.78,11.18,4.7v22.46c0,1.92-7.85,4.7-11.18,4.7H103.14c-3.33,0-11.18-2.78-11.18-4.7V326.93c0-1.92,7.85-4.7,11.18-4.7H241.81m0-1.15H103.14c-3,0-12.33,2.62-12.33,5.85v22.46c0,3.23,9.33,5.85,12.33,5.85H241.81c3,0,12.33-2.62,12.33-5.85V326.93c0-3.23-9.33-5.85-12.33-5.85Z" transform="translate(0 -45.47)"/><path class="cls-6" d="M253,333v-6.07c0-1.92-7.85-4.7-11.18-4.7H103.14c-3.33,0-11.18,2.78-11.18,4.7V333Z" transform="translate(0 -45.47)"/><path class="cls-10" d="M241.81,324.52c2.47,0,7.55,1.83,8.88,2.94v3.25L253,333v-6.07c0-1.92-7.85-4.7-11.18-4.7H103.14c-3.33,0-11.18,2.78-11.18,4.7l2.3.53c1.33-1.11,6.41-2.94,8.88-2.94H241.81" transform="translate(0 -45.47)"/><path class="cls-2" d="M241.81,324.52m8.88,6.19H94.26v-3.25l-2.3-.53V333H253Z" transform="translate(0 -45.47)"/><path class="cls-6" d="M92,343.31v6.08c0,1.92,7.85,4.7,11.18,4.7H241.81c3.33,0,11.18-2.78,11.18-4.7v-6.08Z" transform="translate(0 -45.47)"/><path class="cls-11" d="M250.69,345.61v3.24l2.3.54v-6.08H92l2.3,2.3H250.69" transform="translate(0 -45.47)"/><path class="cls-2" d="M250.69,345.61m0,3.24c-1.33,1.12-6.41,2.94-8.88,2.94H103.14c-2.47,0-7.55-1.82-8.88-2.94v-3.24l-2.3-2.3v6.08c0,1.92,7.85,4.7,11.18,4.7H241.81c3.33,0,11.18-2.78,11.18-4.7Z" transform="translate(0 -45.47)"/><path class="cls-12" d="M249.24,341H95.71a2.87,2.87,0,0,1,0-5.74H249.24a2.87,2.87,0,1,1,0,5.74Z" transform="translate(0 -45.47)"/><path class="cls-7" d="M138,348.13V328.19h-12L124.78,327H139.1v22.24Z" transform="translate(0 -45.47)"/><path class="cls-13" d="M139.1,349.28H124.78V327l1.15,1.15v19.94h12Z" transform="translate(0 -45.47)"/><path class="cls-6" d="M125.93,348.13h12V328.19h-12Z" transform="translate(0 -45.47)"/><circle class="cls-14" cx="148.45" cy="303.23" r="1.45"/><rect class="cls-6" x="302.76" y="168.64" width="210.68" height="68.7" rx="10.36"/><path class="cls-7" d="M501.54,216.41a9.61,9.61,0,0,1,9.6,9.61v44.89a9.61,9.61,0,0,1-9.6,9.61v2.29a11.9,11.9,0,0,0,11.9-11.9V226a11.9,11.9,0,0,0-11.9-11.9H314.66a11.9,11.9,0,0,0-11.9,11.9h2.3a9.61,9.61,0,0,1,9.6-9.61H501.54" transform="translate(0 -45.47)"/><path class="cls-2" d="M501.54,216.41,302.76,226v44.89a11.9,11.9,0,0,0,11.9,11.9H501.54v-2.29H314.66a9.61,9.61,0,0,1-9.6-9.61V226Z" transform="translate(0 -45.47)"/><path class="cls-2" d="M496.18,260.55v-23c0-6.34-9.73-11.47-16.07-11.47h-144c-6.34,0-16.07,5.13-16.07,11.47l6.42.25c0-3.23,9.32-5.85,12.33-5.85H477.43c3,0,12.34,2.62,12.34,5.85V260.3Z" transform="translate(0 -45.47)"/><path class="cls-4" d="M320,237.59v23c0,6.33,9.73,11.47,16.07,11.47h144c6.34,0,16.07-5.14,16.07-11.47l-6.41-.25c0,3.23-9.33,5.85-12.34,5.85H338.77c-3,0-12.33-2.62-12.33-5.85V237.84Z" transform="translate(0 -45.47)"/><path class="cls-9" d="M477.43,266.15H338.77c-3,0-12.33-2.62-12.33-5.85V237.84c0-3.23,9.32-5.85,12.33-5.85H477.43c3,0,12.34,2.62,12.34,5.85V260.3C489.77,263.53,480.44,266.15,477.43,266.15Z" transform="translate(0 -45.47)"/><path class="cls-9" d="M477.43,233.14c3.33,0,11.19,2.78,11.19,4.7V260.3c0,1.92-7.86,4.7-11.19,4.7H338.77c-3.33,0-11.18-2.78-11.18-4.7V237.84c0-1.92,7.85-4.7,11.18-4.7H477.43m0-1.15H338.77c-3,0-12.33,2.62-12.33,5.85V260.3c0,3.23,9.32,5.85,12.33,5.85H477.43c3,0,12.34-2.62,12.34-5.85V237.84c0-3.23-9.33-5.85-12.34-5.85Z" transform="translate(0 -45.47)"/><path class="cls-6" d="M488.62,243.91v-6.07c0-1.92-7.86-4.7-11.19-4.7H338.77c-3.33,0-11.18,2.78-11.18,4.7v6.07Z" transform="translate(0 -45.47)"/><path class="cls-15" d="M477.43,235.43c2.47,0,7.56,1.83,8.89,2.94v3.25l2.3,2.29v-6.07c0-1.92-7.86-4.7-11.19-4.7H338.77c-3.33,0-11.18,2.78-11.18,4.7l2.29.53c1.33-1.11,6.42-2.94,8.89-2.94H477.43" transform="translate(0 -45.47)"/><path class="cls-2" d="M477.43,235.43m8.89,6.19H329.88v-3.25l-2.29-.53v6.07h161Z" transform="translate(0 -45.47)"/><path class="cls-6" d="M327.59,254.22v6.08c0,1.92,7.85,4.7,11.18,4.7H477.43c3.33,0,11.19-2.78,11.19-4.7v-6.08Z" transform="translate(0 -45.47)"/><path class="cls-16" d="M486.32,256.52v3.24l2.3.54v-6.08h-161l2.29,2.3H486.32" transform="translate(0 -45.47)"/><path class="cls-2" d="M486.32,256.52m0,3.24c-1.33,1.12-6.42,2.94-8.89,2.94H338.77c-2.47,0-7.56-1.82-8.89-2.94v-3.24l-2.29-2.3v6.08c0,1.92,7.85,4.7,11.18,4.7H477.43c3.33,0,11.19-2.78,11.19-4.7Z" transform="translate(0 -45.47)"/><path class="cls-17" d="M484.86,251.94H331.34a2.87,2.87,0,1,1,0-5.74H484.86a2.87,2.87,0,1,1,0,5.74Z" transform="translate(0 -45.47)"/><path class="cls-7" d="M373.57,259V239.1h-12L360.41,238h14.31v22.24Z" transform="translate(0 -45.47)"/><path class="cls-13" d="M374.72,260.19H360.41V238l1.15,1.15V259h12Z" transform="translate(0 -45.47)"/><path class="cls-6" d="M361.56,259h12V239.1h-12Z" transform="translate(0 -45.47)"/><circle class="cls-14" cx="384.08" cy="214.14" r="1.45"/><rect class="cls-6" x="67.13" y="346.82" width="210.68" height="68.7" rx="10.36"/><path class="cls-7" d="M265.92,394.59a9.62,9.62,0,0,1,9.6,9.61v44.89a9.62,9.62,0,0,1-9.6,9.61V461a11.9,11.9,0,0,0,11.9-11.9V404.2a11.9,11.9,0,0,0-11.9-11.9H79a11.9,11.9,0,0,0-11.9,11.9h2.3a9.62,9.62,0,0,1,9.6-9.61H265.92" transform="translate(0 -45.47)"/><path class="cls-2" d="M265.92,394.59,67.13,404.2v44.89A11.9,11.9,0,0,0,79,461H265.92V458.7H79a9.62,9.62,0,0,1-9.6-9.61V404.2Z" transform="translate(0 -45.47)"/><path class="cls-2" d="M260.55,438.73v-23c0-6.34-9.73-11.47-16.06-11.47h-144c-6.33,0-16.07,5.13-16.07,11.47l6.42.25c0-3.23,9.33-5.85,12.33-5.85H241.81c3,0,12.33,2.62,12.33,5.85v22.46Z" transform="translate(0 -45.47)"/><path class="cls-4" d="M84.39,415.77v23c0,6.33,9.74,11.47,16.07,11.47h144c6.33,0,16.06-5.14,16.06-11.47l-6.41-.25c0,3.23-9.33,5.85-12.33,5.85H103.14c-3,0-12.33-2.62-12.33-5.85V416Z" transform="translate(0 -45.47)"/><path class="cls-9" d="M241.81,444.33H103.14c-3,0-12.33-2.62-12.33-5.85V416c0-3.23,9.33-5.85,12.33-5.85H241.81c3,0,12.33,2.62,12.33,5.85v22.46C254.14,441.71,244.81,444.33,241.81,444.33Z" transform="translate(0 -45.47)"/><path class="cls-9" d="M241.81,411.32c3.33,0,11.18,2.78,11.18,4.7v22.46c0,1.92-7.85,4.7-11.18,4.7H103.14c-3.33,0-11.18-2.78-11.18-4.7V416c0-1.92,7.85-4.7,11.18-4.7H241.81m0-1.15H103.14c-3,0-12.33,2.62-12.33,5.85v22.46c0,3.23,9.33,5.85,12.33,5.85H241.81c3,0,12.33-2.62,12.33-5.85V416c0-3.23-9.33-5.85-12.33-5.85Z" transform="translate(0 -45.47)"/><path class="cls-6" d="M253,422.09V416c0-1.92-7.85-4.7-11.18-4.7H103.14C99.81,411.32,92,414.1,92,416v6.07Z" transform="translate(0 -45.47)"/><path class="cls-18" d="M241.81,413.61c2.47,0,7.55,1.83,8.88,2.94v3.25l2.3,2.29V416c0-1.92-7.85-4.7-11.18-4.7H103.14C99.81,411.32,92,414.1,92,416l2.3.53c1.33-1.11,6.41-2.94,8.88-2.94H241.81" transform="translate(0 -45.47)"/><path class="cls-2" d="M241.81,413.61m8.88,6.19H94.26v-3.25L92,416v6.07H253Z" transform="translate(0 -45.47)"/><path class="cls-6" d="M92,432.4v6.08c0,1.92,7.85,4.7,11.18,4.7H241.81c3.33,0,11.18-2.78,11.18-4.7V432.4Z" transform="translate(0 -45.47)"/><path class="cls-19" d="M250.69,434.7v3.24l2.3.54V432.4H92l2.3,2.3H250.69" transform="translate(0 -45.47)"/><path class="cls-2" d="M250.69,434.7m0,3.24c-1.33,1.12-6.41,2.94-8.88,2.94H103.14c-2.47,0-7.55-1.82-8.88-2.94V434.7L92,432.4v6.08c0,1.92,7.85,4.7,11.18,4.7H241.81c3.33,0,11.18-2.78,11.18-4.7Z" transform="translate(0 -45.47)"/><path class="cls-20" d="M249.24,430.12H95.71a2.87,2.87,0,1,1,0-5.74H249.24a2.87,2.87,0,0,1,0,5.74Z" transform="translate(0 -45.47)"/><path class="cls-7" d="M138,437.22V417.28h-12l-1.15-1.15H139.1v22.24Z" transform="translate(0 -45.47)"/><path class="cls-13" d="M139.1,438.37H124.78V416.13l1.15,1.15v19.94h12Z" transform="translate(0 -45.47)"/><path class="cls-6" d="M125.93,437.22h12V417.28h-12Z" transform="translate(0 -45.47)"/><circle class="cls-14" cx="148.45" cy="392.32" r="1.45"/><circle class="cls-21" cx="186.14" cy="132.42" r="6.8"/><circle class="cls-21" cx="217.49" cy="132.42" r="6.8"/><circle class="cls-21" cx="248.85" cy="132.42" r="6.8"/><g class="cls-22"><path class="cls-4" d="M82.73,141V124.69h5.73A7.5,7.5,0,0,1,93,125.83a3.9,3.9,0,0,1,1.54,3.34,3.65,3.65,0,0,1-.62,2.12,3.53,3.53,0,0,1-1.71,1.34,3.45,3.45,0,0,1,2,1.27,3.79,3.79,0,0,1,.72,2.34,4.32,4.32,0,0,1-1.5,3.57A6.76,6.76,0,0,1,89.09,141Zm3.37-9.5h2.49c1.7,0,2.55-.7,2.55-2a1.88,1.88,0,0,0-.64-1.6,3.37,3.37,0,0,0-2-.49H86.1Zm0,2.38v4.42H89a2.79,2.79,0,0,0,1.86-.57,2,2,0,0,0,.66-1.57,2.06,2.06,0,0,0-2.32-2.28Z" transform="translate(0 -45.47)"/><path class="cls-4" d="M110.32,137.67h-5.91L103.29,141H99.71l6.08-16.35h3.12L115,141h-3.58Zm-5-2.72h4.09l-2.06-6.12Z" transform="translate(0 -45.47)"/><path class="cls-4" d="M133.54,141h-3.37l-6.56-10.75V141h-3.37V124.69h3.37l6.57,10.78V124.69h3.36Z" transform="translate(0 -45.47)"/><path class="cls-4" d="M152.14,127.42h-5V141h-3.37V127.42h-4.94v-2.73h13.32Z" transform="translate(0 -45.47)"/><path class="cls-4" d="M170.86,133.24a9.83,9.83,0,0,1-.86,4.23,6.45,6.45,0,0,1-2.44,2.81,6.73,6.73,0,0,1-3.64,1,6.81,6.81,0,0,1-3.63-1,6.47,6.47,0,0,1-2.47-2.79,9.54,9.54,0,0,1-.89-4.17v-.81a9.81,9.81,0,0,1,.87-4.25,6.53,6.53,0,0,1,2.46-2.82,7.23,7.23,0,0,1,7.27,0,6.53,6.53,0,0,1,2.46,2.82,9.79,9.79,0,0,1,.87,4.24Zm-3.42-.74a6.83,6.83,0,0,0-.92-3.91,3.25,3.25,0,0,0-5.24,0,6.7,6.7,0,0,0-.93,3.87v.8a6.89,6.89,0,0,0,.92,3.88,3,3,0,0,0,2.65,1.39,3,3,0,0,0,2.6-1.34,6.9,6.9,0,0,0,.92-3.88Z" transform="translate(0 -45.47)"/></g></svg>