<svg xmlns="http://www.w3.org/2000/svg" xmlns:xlink="http://www.w3.org/1999/xlink" width="106.734" height="25.1" viewBox="0 0 106.734 25.1"><defs><style>.a,.b,.i{fill:#fff;}.a{stroke:#fff;stroke-miterlimit:10;stroke-width:0.2px;}.c{fill:url(#a);}.d{fill:url(#b);}.e{fill:url(#c);}.f{fill:url(#d);}.g{opacity:0.2;}.h{opacity:0.12;}.i{opacity:0.25;}</style><linearGradient id="a" x1="0.908" y1="1.032" x2="-0.383" y2="0.36" gradientUnits="objectBoundingBox"><stop offset="0" stop-color="#00a0ff"/><stop offset="0.007" stop-color="#00a1ff"/><stop offset="0.26" stop-color="#00beff"/><stop offset="0.512" stop-color="#00d2ff"/><stop offset="0.76" stop-color="#00dfff"/><stop offset="1" stop-color="#00e3ff"/></linearGradient><linearGradient id="b" x1="1.077" y1="0.729" x2="-1.307" y2="0.729" gradientUnits="objectBoundingBox"><stop offset="0" stop-color="#ffe000"/><stop offset="0.409" stop-color="#ffbd00"/><stop offset="0.775" stop-color="orange"/><stop offset="1" stop-color="#ff9c00"/></linearGradient><linearGradient id="c" x1="0.864" y1="-0.023" x2="-0.499" y2="-1.789" gradientUnits="objectBoundingBox"><stop offset="0" stop-color="#ff3a44"/><stop offset="1" stop-color="#c31162"/></linearGradient><linearGradient id="d" x1="-0.186" y1="2.701" x2="0.423" y2="1.909" gradientUnits="objectBoundingBox"><stop offset="0" stop-color="#32a071"/><stop offset="0.069" stop-color="#2da771"/><stop offset="0.476" stop-color="#15cf74"/><stop offset="0.801" stop-color="#06e775"/><stop offset="1" stop-color="#00f076"/></linearGradient></defs><g transform="translate(0 0.1)"><path class="a" d="M46.935,9.944a2.513,2.513,0,0,1-.646,1.845A2.86,2.86,0,0,1,41.4,9.76,2.835,2.835,0,0,1,44.26,6.9a2.456,2.456,0,0,1,1.107.277,2.009,2.009,0,0,1,.83.646l-.461.461a1.72,1.72,0,0,0-1.476-.646,1.836,1.836,0,0,0-1.476.646,1.9,1.9,0,0,0-.646,1.568,1.9,1.9,0,0,0,.646,1.568,2.375,2.375,0,0,0,1.476.646,2.023,2.023,0,0,0,1.568-.646,1.528,1.528,0,0,0,.461-1.107H44.26V9.575h2.675v.369Zm4.244-2.306H48.688V9.391h2.306v.646H48.688v1.753h2.491v.738H47.95V6.992h3.229Zm3.044,4.889h-.738V7.638H51.917V6.992h3.875v.646H54.223Zm4.244,0V6.992H59.2v5.535Zm3.875,0H61.6V7.638H60.035V6.992h3.782v.646H62.249v4.889Zm8.764-.738a2.86,2.86,0,0,1-4.889-2.03,2.86,2.86,0,1,1,5.72,0A2.712,2.712,0,0,1,71.1,11.789ZM67.6,11.328a2.177,2.177,0,0,0,1.476.646,1.836,1.836,0,0,0,1.476-.646A2.226,2.226,0,0,0,71.2,9.76a1.9,1.9,0,0,0-.646-1.568,2.177,2.177,0,0,0-1.476-.646,1.836,1.836,0,0,0-1.476.646,2.226,2.226,0,0,0-.646,1.568A1.9,1.9,0,0,0,67.6,11.328Zm5.351,1.2V6.992h.83l2.675,4.336V6.992h.738v5.535h-.738L73.6,8.007v4.52H72.95Z" transform="translate(-12.433 -6.9)"/><path class="b" d="M66.008,21.436A3.881,3.881,0,0,0,62.041,25.4a3.937,3.937,0,0,0,3.967,3.967A3.881,3.881,0,0,0,69.975,25.4,3.827,3.827,0,0,0,66.008,21.436Zm0,6.273a2.406,2.406,0,0,1,0-4.8,2.235,2.235,0,0,1,2.214,2.4A2.29,2.29,0,0,1,66.008,27.709Zm-8.579-6.273A3.881,3.881,0,0,0,53.462,25.4a3.937,3.937,0,0,0,3.967,3.967A3.881,3.881,0,0,0,61.4,25.4,3.827,3.827,0,0,0,57.428,21.436Zm0,6.273a2.406,2.406,0,0,1,0-4.8,2.235,2.235,0,0,1,2.214,2.4A2.29,2.29,0,0,1,57.428,27.709Zm-10.24-5.074V24.3h3.967a3.488,3.488,0,0,1-.923,2.122,4.083,4.083,0,0,1-3.044,1.2,4.3,4.3,0,0,1-4.336-4.428,4.352,4.352,0,0,1,4.336-4.428,4.574,4.574,0,0,1,3.044,1.2l1.2-1.2A5.911,5.911,0,0,0,47.281,17.1,6.223,6.223,0,0,0,41.1,23.189a6.223,6.223,0,0,0,6.181,6.089,5.309,5.309,0,0,0,4.244-1.753A5.553,5.553,0,0,0,53,23.65a3.459,3.459,0,0,0-.092-1.015Zm41.882,1.292a3.584,3.584,0,0,0-3.321-2.491,3.715,3.715,0,0,0-3.69,3.967,3.861,3.861,0,0,0,3.875,3.967,3.784,3.784,0,0,0,3.229-1.753l-1.292-.923A2.249,2.249,0,0,1,85.934,27.8,2,2,0,0,1,84,26.6l5.258-2.214-.185-.461ZM83.72,25.218a2.241,2.241,0,0,1,2.03-2.306,1.632,1.632,0,0,1,1.476.83L83.72,25.218ZM79.384,29h1.753V17.469H79.384Zm-2.768-6.734a3.037,3.037,0,0,0-2.122-.923,3.964,3.964,0,0,0-3.782,3.967,3.82,3.82,0,0,0,3.782,3.875,2.649,2.649,0,0,0,2.03-.923h.092v.554a2.1,2.1,0,0,1-4.059.923l-1.476.646a3.806,3.806,0,0,0,3.506,2.306c2.03,0,3.69-1.2,3.69-4.059V21.62H76.617v.646Zm-2.03,5.443a2.406,2.406,0,0,1,0-4.8,2.219,2.219,0,0,1,2.122,2.4A2.219,2.219,0,0,1,74.587,27.709ZM97.1,17.469H92.945V29H94.7V24.665h2.4a3.6,3.6,0,1,0,0-7.2ZM97.189,23H94.7V19.037h2.491a2.026,2.026,0,0,1,2.03,1.937A2.111,2.111,0,0,1,97.189,23ZM107.8,21.344a3.1,3.1,0,0,0-3.044,1.753l1.568.646a1.63,1.63,0,0,1,1.568-.83,1.734,1.734,0,0,1,1.845,1.476v.092a3.659,3.659,0,0,0-1.753-.461c-1.661,0-3.321.923-3.321,2.583a2.7,2.7,0,0,0,2.86,2.583,2.6,2.6,0,0,0,2.214-1.107h.092V29h1.661V24.572a3.491,3.491,0,0,0-3.69-3.229Zm-.185,6.365c-.553,0-1.384-.277-1.384-1.015,0-.923,1.015-1.2,1.845-1.2a3.568,3.568,0,0,1,1.568.369A2.149,2.149,0,0,1,107.613,27.709ZM117.3,21.62,115.362,26.6h-.092l-2.03-4.982H111.4l3.044,7.011-1.753,3.875h1.753l4.7-10.886H117.3ZM101.8,29h1.753V17.469H101.8Z" transform="translate(-12.41 -7.69)"/><path class="c" d="M10.369,7.5A1.8,1.8,0,0,0,10,8.792V29.179a1.825,1.825,0,0,0,.461,1.292l.092.092L21.993,19.124v-.185Z" transform="translate(-10 -6.947)"/><path class="d" d="M26.682,23.641,22.9,19.859v-.277L26.682,15.8l.092.092,4.52,2.583c1.292.738,1.292,1.937,0,2.675Z" transform="translate(-11 -7.59)"/><path class="e" d="M25.806,23.875,21.931,20,10.4,31.531c.461.461,1.107.461,1.937.092l13.469-7.749" transform="translate(-10.031 -7.915)"/><path class="f" d="M25.806,15.131,12.337,7.475a1.5,1.5,0,0,0-1.937.092L21.931,19.006Z" transform="translate(-10.031 -6.921)"/><path class="g" d="M25.714,24.1,12.337,31.665a1.509,1.509,0,0,1-1.845,0l-.092.092.092.092a1.509,1.509,0,0,0,1.845,0Z" transform="translate(-10.031 -8.233)"/><path class="h" d="M10.369,31.347A1.8,1.8,0,0,1,10,30.055v.092a1.825,1.825,0,0,0,.461,1.292v-.092h-.092ZM30.3,21.2l-4.613,2.583.092.092,4.52-2.583A1.534,1.534,0,0,0,31.218,20C31.218,20.461,30.849,20.83,30.3,21.2Z" transform="translate(-10 -7.915)"/><path class="i" d="M12.306,7.565,30.3,17.8c.554.369.923.738.923,1.2a1.534,1.534,0,0,0-.923-1.292L12.306,7.473C11.015,6.735,10,7.288,10,8.764v.092C10,7.473,11.015,6.827,12.306,7.565Z" transform="translate(-10 -6.919)"/></g></svg>