<svg xmlns="http://www.w3.org/2000/svg" xmlns:xlink="http://www.w3.org/1999/xlink" width="283.77" height="510.129" viewBox="0 0 283.77 510.129"><defs><style>.a{fill:#fff;}.b{fill:#1a1311;}.c{filter:url(#a);}</style><filter id="a" x="0" y="0" width="283.77" height="510.129" filterUnits="userSpaceOnUse"><feOffset dy="3" input="SourceAlpha"/><feGaussianBlur stdDeviation="5" result="b"/><feFlood flood-opacity="0.2"/><feComposite operator="in" in2="b"/><feComposite in="SourceGraphic"/></filter></defs><g transform="translate(334.21 -202.75)"><g class="c" transform="matrix(1, 0, 0, 1, -334.21, 202.75)"><path class="a" d="M-112.069,214.75H-270.033a46.681,46.681,0,0,0-46.629,46.629V283.7a3.316,3.316,0,0,0-2.548,3.222v15.052a3.316,3.316,0,0,0,2.548,3.222v14.878a3.316,3.316,0,0,0-2.548,3.222v33.447a3.315,3.315,0,0,0,2.548,3.22v6.982a3.317,3.317,0,0,0-2.548,3.222v33.447a3.316,3.316,0,0,0,2.548,3.222V648.25a46.681,46.681,0,0,0,46.629,46.629h157.964A46.682,46.682,0,0,0-65.44,648.25V261.379A46.682,46.682,0,0,0-112.069,214.75ZM-81.4,261.379V648.25a30.7,30.7,0,0,1-30.669,30.669H-270.033A30.7,30.7,0,0,1-300.7,648.25V261.379a30.7,30.7,0,0,1,30.669-30.669h12.563a4.457,4.457,0,0,1,3.524,4.357,14.63,14.63,0,0,0,14.609,14.589h96.571a14.674,14.674,0,0,0,14.525-13.117l.086-.013v-1.281a4.468,4.468,0,0,1,4.464-4.463l3.639-.071h7.982A30.7,30.7,0,0,1-81.4,261.379Z" transform="translate(334.21 -202.75)"/></g><path class="b" d="M-84.134,644.656a32.019,32.019,0,0,1-31.916,32.049H-272.888A32.019,32.019,0,0,1-304.8,644.656V259.05A32.019,32.019,0,0,1-272.888,227h12.618a5.909,5.909,0,0,1,4.821,5.814h0a13.065,13.065,0,0,0,13.037,13.073h95.882A13.058,13.058,0,0,0-133.5,232.995h.013a5.91,5.91,0,0,1,5.9-5.923l-.074-.071h11.613a32.019,32.019,0,0,1,31.916,32.05Z" transform="translate(3.482 2.961)"/></g></svg>