<svg xmlns="http://www.w3.org/2000/svg" xmlns:xlink="http://www.w3.org/1999/xlink" width="380.833" height="502.556" viewBox="0 0 380.833 502.556"><defs><style>.a{fill:#fff;}.b{fill:#afaeae;}.c{fill:#f5f5f5;}.d{filter:url(#c);}.e{filter:url(#a);}</style><filter id="a" x="96.719" y="314.344" width="284.115" height="188.212" filterUnits="userSpaceOnUse"><feOffset dy="3" input="SourceAlpha"/><feGaussianBlur stdDeviation="5" result="b"/><feFlood flood-opacity="0.161"/><feComposite operator="in" in2="b"/><feComposite in="SourceGraphic"/></filter><filter id="c" x="0" y="0" width="284.408" height="465.838" filterUnits="userSpaceOnUse"><feOffset dx="2" dy="3" input="SourceAlpha"/><feGaussianBlur stdDeviation="5" result="d"/><feFlood flood-opacity="0.161"/><feComposite operator="in" in2="d"/><feComposite in="SourceGraphic"/></filter></defs><g transform="translate(-637.932 -3009.58)"><g class="e" transform="matrix(1, 0, 0, 1, 637.93, 3009.58)"><path class="a" d="M416.632,508.389,400.2,501.421l-2.837-1.2-3.861-9.951,7.628-17.992a1.478,1.478,0,0,0-.784-1.937l-19.095-8.1a1.478,1.478,0,0,0-1.936.784l-7.628,17.992-9.836,4.143-2.837-1.2-16.436-6.969a1.479,1.479,0,0,0-1.937.784l-8.1,19.095a1.479,1.479,0,0,0,.784,1.937l16.436,6.968-2.542,6,2.309.979a9.258,9.258,0,0,1,4.91,12.138l-.979,2.309-.118-.05-7.024,16.57,5.07,2.15-1.934,4.56A74.342,74.342,0,0,1,252.1,589.81L219.14,575.836a74.341,74.341,0,0,1-39.383-97.35l11.223-26.472-9.619-4.078-11.222,26.472a84.8,84.8,0,0,0,44.924,111.047l32.962,13.975a84.8,84.8,0,0,0,111.048-44.924l1.934-4.56,5.069,2.149,7.024-16.57-.118-.051.979-2.308a9.259,9.259,0,0,1,12.138-4.911l2.309.979,2.542-6,16.436,6.968a1.477,1.477,0,0,0,1.936-.784l8.1-19.095A1.476,1.476,0,0,0,416.632,508.389Z" transform="translate(-51.7 -121.59)"/></g><g class="d" transform="matrix(1, 0, 0, 1, 637.93, 3009.58)"><path class="a" d="M37-20H217.411a37,37,0,0,1,37,37V378.841a37,37,0,0,1-37,37H37a37,37,0,0,1-37-37V17A37,37,0,0,1,37-20Z" transform="translate(13 32)"/></g><g transform="translate(722.24 3351.068)"><path class="b" d="M139.431,472.268a3.4,3.4,0,0,1-1.114,2.355,3.8,3.8,0,0,1-2.585.845,3.678,3.678,0,0,1-1.985-.534,3.5,3.5,0,0,1-1.325-1.519,5.488,5.488,0,0,1-.486-2.287v-.881a5.526,5.526,0,0,1,.473-2.352,3.571,3.571,0,0,1,1.357-1.568,3.784,3.784,0,0,1,2.044-.551,3.646,3.646,0,0,1,2.513.846,3.53,3.53,0,0,1,1.108,2.393H137.8a2.326,2.326,0,0,0-.593-1.467,1.957,1.957,0,0,0-1.4-.45,1.915,1.915,0,0,0-1.643.781,3.9,3.9,0,0,0-.586,2.292v.837a4.134,4.134,0,0,0,.548,2.334,1.815,1.815,0,0,0,1.6.8,2.116,2.116,0,0,0,1.451-.434,2.26,2.26,0,0,0,.616-1.445Z" transform="translate(-131.936 -465.389)"/><path class="b" d="M146.207,475.7a2.466,2.466,0,0,1-.181-.655,2.649,2.649,0,0,1-3.563.182,1.93,1.93,0,0,1-.668-1.491,1.991,1.991,0,0,1,.832-1.72,4.035,4.035,0,0,1,2.381-.6h.966v-.461a1.227,1.227,0,0,0-.3-.871,1.209,1.209,0,0,0-.926-.327,1.385,1.385,0,0,0-.881.268.833.833,0,0,0-.344.683h-1.574a1.753,1.753,0,0,1,.382-1.079,2.548,2.548,0,0,1,1.04-.787,3.654,3.654,0,0,1,1.467-.285,2.945,2.945,0,0,1,1.963.618,2.209,2.209,0,0,1,.751,1.74v3.16a3.573,3.573,0,0,0,.266,1.51v.111Zm-1.729-1.134a1.788,1.788,0,0,0,.878-.227,1.521,1.521,0,0,0,.619-.609v-1.323h-.849a2.331,2.331,0,0,0-1.315.3.987.987,0,0,0-.44.862.919.919,0,0,0,.3.722A1.168,1.168,0,0,0,144.477,474.566Z" transform="translate(-133.211 -465.749)"/><path class="b" d="M156.434,472.266a4.174,4.174,0,0,1-.738,2.594,2.567,2.567,0,0,1-3.829.211v3.323h-1.574v-9.7h1.45l.065.712a2.312,2.312,0,0,1,1.885-.842,2.391,2.391,0,0,1,2.012.955,4.286,4.286,0,0,1,.729,2.653Zm-1.568-.136a2.926,2.926,0,0,0-.418-1.666,1.358,1.358,0,0,0-1.2-.615,1.449,1.449,0,0,0-1.386.8v3.109a1.462,1.462,0,0,0,1.4.817,1.359,1.359,0,0,0,1.176-.605A3.219,3.219,0,0,0,154.866,472.131Z" transform="translate(-134.311 -465.749)"/><path class="b" d="M163.031,475.7a2.4,2.4,0,0,1-.181-.655,2.65,2.65,0,0,1-3.564.182,1.929,1.929,0,0,1-.667-1.491,1.989,1.989,0,0,1,.832-1.72,4.032,4.032,0,0,1,2.38-.6h.966v-.461a1.226,1.226,0,0,0-.3-.871,1.209,1.209,0,0,0-.926-.327,1.385,1.385,0,0,0-.881.268.832.832,0,0,0-.343.683h-1.574a1.751,1.751,0,0,1,.381-1.079,2.549,2.549,0,0,1,1.04-.787,3.654,3.654,0,0,1,1.467-.285,2.945,2.945,0,0,1,1.963.618,2.209,2.209,0,0,1,.751,1.74v3.16a3.586,3.586,0,0,0,.266,1.51v.111Zm-1.73-1.134a1.788,1.788,0,0,0,.878-.227,1.522,1.522,0,0,0,.619-.609v-1.323h-.849a2.326,2.326,0,0,0-1.315.3.986.986,0,0,0-.441.862.919.919,0,0,0,.3.722A1.168,1.168,0,0,0,161.3,474.566Z" transform="translate(-135.388 -465.749)"/><path class="b" d="M169.956,474.573a1.42,1.42,0,0,0,.979-.344,1.171,1.171,0,0,0,.414-.848h1.484a2.309,2.309,0,0,1-.408,1.221,2.666,2.666,0,0,1-1.036.9,3.089,3.089,0,0,1-1.412.33,2.987,2.987,0,0,1-2.332-.953,3.773,3.773,0,0,1-.862-2.629v-.163a3.713,3.713,0,0,1,.855-2.561,2.961,2.961,0,0,1,2.332-.962,2.883,2.883,0,0,1,2.037.728,2.613,2.613,0,0,1,.826,1.915h-1.484a1.445,1.445,0,0,0-.411-.992,1.324,1.324,0,0,0-.982-.388,1.388,1.388,0,0,0-1.179.553,2.829,2.829,0,0,0-.421,1.682v.252a2.871,2.871,0,0,0,.412,1.7A1.382,1.382,0,0,0,169.956,474.573Z" transform="translate(-136.444 -465.749)"/><path class="b" d="M175.1,466.493a.83.83,0,0,1,.23-.6.866.866,0,0,1,.657-.24.88.88,0,0,1,.661.24.826.826,0,0,1,.233.6.811.811,0,0,1-.233.594.891.891,0,0,1-.661.236.877.877,0,0,1-.657-.236A.815.815,0,0,1,175.1,466.493Zm1.671,8.831H175.2v-7.009h1.574Z" transform="translate(-137.52 -465.372)"/><path class="b" d="M180.85,466.753v1.7h1.237v1.166H180.85v3.913a.863.863,0,0,0,.158.58.735.735,0,0,0,.567.179,2.453,2.453,0,0,0,.551-.064v1.217a3.847,3.847,0,0,1-1.036.149q-1.814,0-1.814-2v-3.971h-1.153v-1.166h1.153v-1.7Z" transform="translate(-137.911 -465.515)"/><path class="b" d="M186.4,473.465l1.425-4.755H189.5l-2.785,8.072a2.265,2.265,0,0,1-2.176,1.769,2.806,2.806,0,0,1-.758-.117V477.21l.3.018a1.533,1.533,0,0,0,.9-.217,1.432,1.432,0,0,0,.476-.728l.226-.6-2.461-6.972h1.7Z" transform="translate(-138.57 -465.768)"/><path class="b" d="M192.429,468.538a.9.9,0,0,1,.681.25.868.868,0,0,1,.239.625.837.837,0,0,1-.239.612,1.062,1.062,0,0,1-1.348,0,.821.821,0,0,1-.246-.616.865.865,0,0,1,.24-.625A.889.889,0,0,1,192.429,468.538Zm0,5.5a.9.9,0,0,1,.681.251.864.864,0,0,1,.239.624.834.834,0,0,1-.239.612,1.059,1.059,0,0,1-1.348,0,.819.819,0,0,1-.246-.616.861.861,0,0,1,.24-.624A.885.885,0,0,1,192.429,474.038Z" transform="translate(-139.644 -465.746)"/><path class="b" d="M195.841,470.682l.512-4.755h5.066v1.36h-3.758l-.259,2.255a2.91,2.91,0,0,1,1.477-.376,2.63,2.63,0,0,1,2.1.862,3.415,3.415,0,0,1,.749,2.319,3.143,3.143,0,0,1-.83,2.29,3.027,3.027,0,0,1-2.274.852,3.172,3.172,0,0,1-2.148-.735,2.661,2.661,0,0,1-.923-1.941h1.523a1.664,1.664,0,0,0,.492,1.053,1.5,1.5,0,0,0,1.05.366,1.352,1.352,0,0,0,1.13-.518,2.236,2.236,0,0,0,.406-1.412,1.975,1.975,0,0,0-.447-1.363,1.563,1.563,0,0,0-1.231-.5,1.717,1.717,0,0,0-1.373.557Z" transform="translate(-140.165 -465.408)"/><path class="b" d="M210.207,471.368a5.152,5.152,0,0,1-.761,3.068,2.69,2.69,0,0,1-2.317,1.032,2.726,2.726,0,0,1-2.3-1.006,4.927,4.927,0,0,1-.794-2.984v-1.632a5.067,5.067,0,0,1,.762-3.051,3.171,3.171,0,0,1,4.632-.026,4.914,4.914,0,0,1,.781,2.967Zm-1.575-1.761a4,4,0,0,0-.362-1.948,1.388,1.388,0,0,0-2.287-.032,3.691,3.691,0,0,0-.382,1.83V471.6a4.1,4.1,0,0,0,.369,1.969,1.241,1.241,0,0,0,1.16.648,1.218,1.218,0,0,0,1.12-.6,3.836,3.836,0,0,0,.382-1.875Z" transform="translate(-141.263 -465.389)"/><path class="b" d="M218.867,471.368a5.152,5.152,0,0,1-.761,3.068,2.69,2.69,0,0,1-2.317,1.032,2.727,2.727,0,0,1-2.3-1.006,4.926,4.926,0,0,1-.794-2.984v-1.632a5.068,5.068,0,0,1,.762-3.051,3.171,3.171,0,0,1,4.632-.026,4.914,4.914,0,0,1,.781,2.967Zm-1.574-1.761a4,4,0,0,0-.363-1.948,1.388,1.388,0,0,0-2.287-.032,3.692,3.692,0,0,0-.382,1.83V471.6a4.1,4.1,0,0,0,.369,1.969,1.241,1.241,0,0,0,1.16.648,1.219,1.219,0,0,0,1.121-.6,3.856,3.856,0,0,0,.382-1.875Z" transform="translate(-142.383 -465.389)"/><path class="b" d="M227.529,471.368a5.145,5.145,0,0,1-.761,3.068,2.688,2.688,0,0,1-2.316,1.032,2.725,2.725,0,0,1-2.3-1.006,4.928,4.928,0,0,1-.794-2.984v-1.632a5.068,5.068,0,0,1,.761-3.051,3.172,3.172,0,0,1,4.633-.026,4.908,4.908,0,0,1,.78,2.967Zm-1.574-1.761a4,4,0,0,0-.362-1.948,1.387,1.387,0,0,0-2.287-.032,3.69,3.69,0,0,0-.382,1.83V471.6a4.091,4.091,0,0,0,.369,1.969,1.241,1.241,0,0,0,1.16.648,1.219,1.219,0,0,0,1.12-.6,3.837,3.837,0,0,0,.382-1.875Z" transform="translate(-143.504 -465.389)"/><path class="b" d="M231.641,468.691l.046.732a2.521,2.521,0,0,1,2.021-.862,1.938,1.938,0,0,1,1.924,1.075,2.488,2.488,0,0,1,2.151-1.075,2.19,2.19,0,0,1,1.727.641,2.826,2.826,0,0,1,.58,1.892V475.7h-1.575v-4.561a1.4,1.4,0,0,0-.291-.979,1.278,1.278,0,0,0-.966-.311,1.309,1.309,0,0,0-.878.289,1.516,1.516,0,0,0-.476.754l.006,4.808h-1.574v-4.613a1.124,1.124,0,0,0-1.263-1.238,1.386,1.386,0,0,0-1.341.771V475.7h-1.574v-7.01Z" transform="translate(-144.643 -465.749)"/><path class="b" d="M248.751,473.163H245.1l-.764,2.2h-1.7l3.564-9.432h1.47l3.57,9.432h-1.711Zm-3.194-1.321h2.734l-1.367-3.914Z" transform="translate(-146.256 -465.408)"/><path class="b" d="M255.112,469.037a2.462,2.462,0,0,1,1.949-.894q2.242,0,2.274,2.559v4.58h-1.574v-4.523a1.381,1.381,0,0,0-.314-1.026,1.283,1.283,0,0,0-.923-.3,1.517,1.517,0,0,0-1.412.843v5.008h-1.574v-9.951h1.574Z" transform="translate(-147.667 -465.331)"/><path class="b" d="M134.022,496.694H132.39v-9.432h1.632Z" transform="translate(-131.995 -468.168)"/><path class="b" d="M137.862,490.026l.045.81a2.521,2.521,0,0,1,2.041-.94q2.19,0,2.229,2.507v4.633H140.6v-4.541a1.44,1.44,0,0,0-.288-.988,1.209,1.209,0,0,0-.942-.321,1.517,1.517,0,0,0-1.419.862v4.989h-1.574v-7.01Z" transform="translate(-132.511 -468.509)"/><path class="b" d="M151.017,493.6a4.175,4.175,0,0,1-.738,2.595,2.567,2.567,0,0,1-3.829.211v3.323h-1.574v-9.7h1.45l.065.712a2.312,2.312,0,0,1,1.885-.842,2.39,2.39,0,0,1,2.012.955,4.285,4.285,0,0,1,.729,2.653Zm-1.568-.136a2.926,2.926,0,0,0-.418-1.666,1.358,1.358,0,0,0-1.2-.615,1.449,1.449,0,0,0-1.386.8v3.109a1.463,1.463,0,0,0,1.4.816,1.356,1.356,0,0,0,1.175-.606A3.216,3.216,0,0,0,149.449,493.466Z" transform="translate(-133.61 -468.509)"/><path class="b" d="M157.7,496.367a2.441,2.441,0,0,1-1.969.816,2.178,2.178,0,0,1-1.726-.666,2.843,2.843,0,0,1-.587-1.931v-4.541h1.575v4.521q0,1.336,1.107,1.335a1.555,1.555,0,0,0,1.548-.823v-5.033h1.574v7.009h-1.484Z" transform="translate(-134.715 -468.528)"/><path class="b" d="M163.788,488.088v1.7h1.237v1.166h-1.237v3.913a.858.858,0,0,0,.158.58.734.734,0,0,0,.567.179,2.454,2.454,0,0,0,.551-.065v1.217a3.848,3.848,0,0,1-1.037.149q-1.814,0-1.814-2v-3.971H161.06v-1.166h1.154v-1.7Z" transform="translate(-135.704 -468.275)"/><path class="b" d="M167.948,489.873a.9.9,0,0,1,.681.25.867.867,0,0,1,.239.625.837.837,0,0,1-.239.612,1.063,1.063,0,0,1-1.348,0,.821.821,0,0,1-.246-.616.865.865,0,0,1,.24-.625A.888.888,0,0,1,167.948,489.873Zm0,5.5a.9.9,0,0,1,.681.251.864.864,0,0,1,.239.624.834.834,0,0,1-.239.612,1.059,1.059,0,0,1-1.348,0,.819.819,0,0,1-.246-.616.861.861,0,0,1,.24-.624A.886.886,0,0,1,167.948,495.373Z" transform="translate(-136.477 -468.506)"/><path class="b" d="M171.36,492.017l.512-4.755h5.066v1.36H173.18l-.259,2.255a2.912,2.912,0,0,1,1.477-.376,2.63,2.63,0,0,1,2.1.862,3.415,3.415,0,0,1,.749,2.319,3.143,3.143,0,0,1-.83,2.29,3.027,3.027,0,0,1-2.274.852,3.171,3.171,0,0,1-2.148-.735,2.66,2.66,0,0,1-.923-1.941h1.523a1.664,1.664,0,0,0,.492,1.054,1.5,1.5,0,0,0,1.05.366,1.352,1.352,0,0,0,1.13-.518,2.236,2.236,0,0,0,.406-1.412,1.975,1.975,0,0,0-.448-1.363,1.563,1.563,0,0,0-1.231-.5,1.717,1.717,0,0,0-1.373.557Z" transform="translate(-136.998 -468.168)"/><path class="b" d="M183.069,494.641l2.4-7.379h1.8l-3.395,9.432h-1.587l-3.382-9.432h1.8Z" transform="translate(-138.012 -468.168)"/><path class="b" d="M189.881,497.5h-1.237l3.712-10.241h1.237Z" transform="translate(-139.272 -468.168)"/><path class="b" d="M201.783,496.675H195.44v-1.081l3.142-3.428a7.776,7.776,0,0,0,.968-1.267,2.053,2.053,0,0,0,.289-1.021,1.546,1.546,0,0,0-.38-1.088,1.314,1.314,0,0,0-1.02-.415,1.512,1.512,0,0,0-1.186.468,1.834,1.834,0,0,0-.421,1.275h-1.574a3.087,3.087,0,0,1,.392-1.552,2.7,2.7,0,0,1,1.121-1.072,3.561,3.561,0,0,1,1.68-.383,3.2,3.2,0,0,1,2.168.69,2.4,2.4,0,0,1,.793,1.908,3.239,3.239,0,0,1-.4,1.48,8.426,8.426,0,0,1-1.305,1.759l-2.306,2.468h4.379Z" transform="translate(-140.128 -468.149)"/><path class="b" d="M209.574,494.5H205.92l-.764,2.2h-1.7l3.563-9.432h1.47l3.57,9.432h-1.71Zm-3.194-1.321h2.734l-1.367-3.913Z" transform="translate(-141.188 -468.168)"/><path class="b" d="M139.761,513.539a5.793,5.793,0,0,1-.479,2.433,3.623,3.623,0,0,1-1.37,1.606,4.022,4.022,0,0,1-4.095,0,3.673,3.673,0,0,1-1.386-1.6,5.59,5.59,0,0,1-.5-2.392v-.53a5.732,5.732,0,0,1,.489-2.436,3.67,3.67,0,0,1,1.38-1.616,3.75,3.75,0,0,1,2.043-.562,3.792,3.792,0,0,1,2.044.555,3.629,3.629,0,0,1,1.376,1.593,5.73,5.73,0,0,1,.492,2.42Zm-1.639-.493a4.122,4.122,0,0,0-.593-2.4,2.093,2.093,0,0,0-3.343,0,4.041,4.041,0,0,0-.612,2.354v.544a4.091,4.091,0,0,0,.606,2.4,1.951,1.951,0,0,0,1.681.849,1.93,1.93,0,0,0,1.675-.83,4.186,4.186,0,0,0,.586-2.423Z" transform="translate(-131.936 -470.909)"/><path class="b" d="M146.866,517.7a2.442,2.442,0,0,1-1.969.816,2.176,2.176,0,0,1-1.726-.667,2.837,2.837,0,0,1-.587-1.93V511.38h1.575V515.9q0,1.336,1.108,1.335a1.557,1.557,0,0,0,1.548-.823V511.38h1.574v7.009H146.9Z" transform="translate(-133.313 -471.288)"/><path class="b" d="M152.954,509.423v1.7h1.237v1.166h-1.237v3.913a.859.859,0,0,0,.158.58.734.734,0,0,0,.567.178,2.461,2.461,0,0,0,.551-.065v1.217a3.889,3.889,0,0,1-1.037.149q-1.814,0-1.814-2v-3.971h-1.154v-1.166h1.154v-1.7Z" transform="translate(-134.302 -471.035)"/><path class="b" d="M162.3,514.936a4.17,4.17,0,0,1-.739,2.594,2.566,2.566,0,0,1-3.828.211v3.323h-1.574v-9.7h1.451l.065.712a2.312,2.312,0,0,1,1.885-.843,2.394,2.394,0,0,1,2.012.956,4.284,4.284,0,0,1,.729,2.653Zm-1.568-.136a2.926,2.926,0,0,0-.418-1.666,1.359,1.359,0,0,0-1.2-.615,1.449,1.449,0,0,0-1.386.8v3.109a1.462,1.462,0,0,0,1.4.817,1.356,1.356,0,0,0,1.175-.606A3.208,3.208,0,0,0,160.73,514.8Z" transform="translate(-135.069 -471.269)"/><path class="b" d="M168.981,517.7a2.441,2.441,0,0,1-1.969.816,2.176,2.176,0,0,1-1.726-.667,2.837,2.837,0,0,1-.587-1.93V511.38h1.575V515.9q0,1.336,1.107,1.335a1.557,1.557,0,0,0,1.549-.823V511.38H170.5v7.009H169.02Z" transform="translate(-136.174 -471.288)"/><path class="b" d="M175.069,509.423v1.7h1.237v1.166h-1.237v3.913a.859.859,0,0,0,.159.58.732.732,0,0,0,.567.178,2.448,2.448,0,0,0,.55-.065v1.217a3.882,3.882,0,0,1-1.036.149q-1.814,0-1.814-2v-3.971h-1.154v-1.166h1.154v-1.7Z" transform="translate(-137.163 -471.035)"/><path class="b" d="M179.229,511.208a.9.9,0,0,1,.68.25.864.864,0,0,1,.24.625.836.836,0,0,1-.24.612,1.061,1.061,0,0,1-1.347,0,.821.821,0,0,1-.246-.615.867.867,0,0,1,.239-.625A.892.892,0,0,1,179.229,511.208Zm0,5.5a.894.894,0,0,1,.68.251.861.861,0,0,1,.24.624.833.833,0,0,1-.24.612,1.058,1.058,0,0,1-1.347,0,.82.82,0,0,1-.246-.616.864.864,0,0,1,.239-.624A.889.889,0,0,1,179.229,516.708Z" transform="translate(-137.936 -471.266)"/><path class="b" d="M182.641,513.352l.512-4.756h5.066v1.36h-3.758l-.259,2.255a2.911,2.911,0,0,1,1.477-.376,2.627,2.627,0,0,1,2.1.862,3.413,3.413,0,0,1,.748,2.319,3.143,3.143,0,0,1-.829,2.29,3.028,3.028,0,0,1-2.274.851,3.172,3.172,0,0,1-2.148-.735,2.66,2.66,0,0,1-.923-1.941h1.523a1.66,1.66,0,0,0,.492,1.054,1.5,1.5,0,0,0,1.05.365,1.353,1.353,0,0,0,1.13-.518,2.237,2.237,0,0,0,.4-1.412,1.973,1.973,0,0,0-.447-1.363,1.563,1.563,0,0,0-1.231-.5,1.719,1.719,0,0,0-1.374.557Z" transform="translate(-138.458 -470.928)"/><path class="b" d="M194.35,515.976l2.4-7.379h1.8l-3.395,9.433h-1.588l-3.382-9.433h1.8Z" transform="translate(-139.471 -470.928)"/><path class="b" d="M201.162,518.838h-1.238l3.712-10.241h1.237Z" transform="translate(-140.731 -470.928)"/><path class="b" d="M213.064,518.01h-6.343v-1.082l3.142-3.427a7.774,7.774,0,0,0,.968-1.267,2.053,2.053,0,0,0,.289-1.02,1.55,1.55,0,0,0-.38-1.088,1.315,1.315,0,0,0-1.02-.415,1.513,1.513,0,0,0-1.185.467,1.831,1.831,0,0,0-.421,1.276H206.54a3.084,3.084,0,0,1,.392-1.551,2.7,2.7,0,0,1,1.121-1.072,3.564,3.564,0,0,1,1.681-.383,3.191,3.191,0,0,1,2.167.691,2.4,2.4,0,0,1,.794,1.908,3.238,3.238,0,0,1-.4,1.48,8.427,8.427,0,0,1-1.305,1.759l-2.306,2.468h4.379Z" transform="translate(-141.587 -470.909)"/><path class="b" d="M220.854,515.833H217.2l-.764,2.2h-1.7L218.3,508.6h1.471l3.57,9.433h-1.711Zm-3.194-1.321h2.734l-1.366-3.913Z" transform="translate(-142.647 -470.928)"/></g><path class="c" d="M128.885,198.568l-1.7-1.675.387.382,3.813-3.859-3.859-3.812L139.2,177.8A15.077,15.077,0,1,0,117.746,156.6l-.037-.037-11.667,11.81L102.22,164.6l-3.812,3.858-1.347-1.33-12.7-12.546a1.477,1.477,0,0,0-2.089.012L63.119,173.983a1.477,1.477,0,0,0,.013,2.089l14.484,14.31a9.259,9.259,0,0,1,.079,13.093l-1.763,1.784-.091-.09-12.649,12.8,3.682,3.638L50.032,238.655v15.267L74.506,229.15l3.951,3.9,12.649-12.8-.091-.09,1.762-1.784a9.259,9.259,0,0,1,13.093-.08L120.355,232.6a1.476,1.476,0,0,0,2.089-.012L141.6,213.2a1.478,1.478,0,0,0-.012-2.089Z" transform="translate(600.9 2889.258)"/></g></svg>